<svg width="22" height="36" viewBox="0 0 22 36" fill="none" xmlns="http://www.w3.org/2000/svg">
<path d="M10.0833 20.7502H11.9166V22.5835H10.0833V20.7502ZM10.0833 13.4168H11.9166V18.9168H10.0833V13.4168ZM10.9908 8.8335C5.93075 8.8335 1.83325 12.9402 1.83325 18.0002C1.83325 23.0602 5.93075 27.1668 10.9908 27.1668C16.0599 27.1668 20.1666 23.0602 20.1666 18.0002C20.1666 12.9402 16.0599 8.8335 10.9908 8.8335ZM10.9999 25.3335C6.94825 25.3335 3.66659 22.0518 3.66659 18.0002C3.66659 13.9485 6.94825 10.6668 10.9999 10.6668C15.0516 10.6668 18.3333 13.9485 18.3333 18.0002C18.3333 22.0518 15.0516 25.3335 10.9999 25.3335Z" fill="#F44336"/>
</svg>
