<svg width="18" height="18" viewBox="0 0 18 18" fill="none" xmlns="http://www.w3.org/2000/svg">
<path d="M12.9079 12C12.7813 10.7833 12.271 9.64865 11.4607 8.78197C10.6504 7.9153 9.58806 7.36806 8.44796 7.22997C7.30785 7.09188 6.15759 7.37114 5.18577 8.02196C4.21394 8.67278 3.47823 9.65654 3.09924 10.812C2.23079 10.8878 1.42351 11.3191 0.846366 12.0155C0.269224 12.7119 -0.0330319 13.6195 0.00286799 14.5483C0.0387679 15.4771 0.410041 16.3551 1.03897 16.9984C1.6679 17.6418 2.50573 18.0007 3.37707 18H12.9382C13.684 18 14.3993 17.6839 14.9267 17.1213C15.4541 16.5587 15.7503 15.7956 15.7503 15C15.7503 14.2043 15.4541 13.4413 14.9267 12.8786C14.3993 12.316 13.684 12 12.9382 12H12.9079Z" fill="#4D70FF"/>
<path d="M11.8133 0.600005C11.8133 0.440874 11.7541 0.28826 11.6486 0.175737C11.5431 0.0632146 11.4001 0 11.2509 0C11.1017 0 10.9587 0.0632146 10.8532 0.175737C10.7477 0.28826 10.6885 0.440874 10.6885 0.600005V1.80001C10.6885 1.95915 10.7477 2.11176 10.8532 2.22428C10.9587 2.3368 11.1017 2.40002 11.2509 2.40002C11.4001 2.40002 11.5431 2.3368 11.6486 2.22428C11.7541 2.11176 11.8133 1.95915 11.8133 1.80001V0.600005ZM16.0236 2.95682C16.0773 2.90148 16.1202 2.83527 16.1496 2.76206C16.1791 2.68886 16.1946 2.61013 16.1953 2.53046C16.1959 2.45079 16.1817 2.37178 16.1534 2.29805C16.1251 2.22431 16.0834 2.15732 16.0306 2.10098C15.9778 2.04464 15.915 2.00009 15.8458 1.96992C15.7767 1.93975 15.7027 1.92457 15.628 1.92527C15.5533 1.92596 15.4795 1.94251 15.4109 1.97395C15.3423 2.0054 15.2802 2.05111 15.2283 2.10842L14.4319 2.95682C14.3263 3.06949 14.267 3.22229 14.267 3.38163C14.267 3.54096 14.3263 3.69377 14.4319 3.80643C14.5376 3.9191 14.6808 3.98239 14.8301 3.98239C14.9795 3.98239 15.1227 3.9191 15.2283 3.80643L16.0236 2.95682V2.95682ZM7.27345 2.10842C7.16738 1.99912 7.02531 1.93864 6.87785 1.94001C6.73038 1.94138 6.58932 2.00448 6.48504 2.11573C6.38076 2.22697 6.32162 2.37746 6.32033 2.53478C6.31905 2.6921 6.37574 2.84366 6.47819 2.95682L7.27345 3.80643C7.32575 3.86222 7.38782 3.90647 7.45615 3.93666C7.52447 3.96685 7.5977 3.98239 7.67165 3.98239C7.7456 3.98239 7.81883 3.96685 7.88715 3.93666C7.95547 3.90647 8.01755 3.86222 8.06984 3.80643C8.12213 3.75064 8.16361 3.68442 8.19191 3.61153C8.22021 3.53864 8.23478 3.46052 8.23478 3.38163C8.23478 3.30273 8.22021 3.22461 8.19191 3.15173C8.16361 3.07884 8.12213 3.01261 8.06984 2.95682L7.27345 2.10842V2.10842ZM9.22393 6.15725C9.36373 5.84817 9.56404 5.57468 9.81134 5.35521C10.0586 5.13574 10.3472 4.97541 10.6575 4.88502C10.9678 4.79463 11.2927 4.77629 11.6103 4.83124C11.9278 4.88619 12.2306 5.01314 12.4982 5.20354C12.7658 5.39394 12.9921 5.64336 13.1617 5.93497C13.3313 6.22658 13.4403 6.5536 13.4813 6.89398C13.5224 7.23435 13.4945 7.58015 13.3997 7.90807C13.3048 8.23599 13.1451 8.53839 12.9314 8.79487C13.1552 9.13207 13.3498 9.49328 13.5118 9.87248C13.893 9.50504 14.1906 9.04959 14.3817 8.54085C14.5729 8.03212 14.6526 7.48354 14.6149 6.93693C14.5772 6.39032 14.423 5.86012 14.164 5.38675C13.9051 4.91337 13.5482 4.50932 13.1207 4.20541C12.6932 3.90149 12.2062 3.70573 11.697 3.63305C11.1878 3.56037 10.6697 3.61269 10.1823 3.78602C9.69494 3.95935 9.25108 4.24912 8.8846 4.63323C8.51811 5.01733 8.23868 5.48564 8.06759 6.00245C8.46354 6.01565 8.85048 6.06845 9.22393 6.15725ZM14.2677 11.0461C14.9426 11.3041 15.5332 11.7541 15.9797 12.3325C16.041 12.2796 16.0911 12.2135 16.1269 12.1386C16.1627 12.0637 16.1833 11.9817 16.1874 11.8977C16.1916 11.8138 16.1791 11.7298 16.1509 11.6513C16.1227 11.5728 16.0793 11.5016 16.0236 11.4421L15.2283 10.5937C15.1482 10.5076 15.0454 10.4495 14.9336 10.4271C14.8219 10.4046 14.7064 10.4188 14.6023 10.4678C14.4983 10.5168 14.4106 10.5983 14.3509 10.7015C14.2911 10.8048 14.2621 10.9249 14.2677 11.0461ZM16.3127 6.60005C16.1635 6.60005 16.0205 6.66327 15.915 6.77579C15.8095 6.88831 15.7503 7.04093 15.7503 7.20006C15.7503 7.35919 15.8095 7.5118 15.915 7.62432C16.0205 7.73685 16.1635 7.80006 16.3127 7.80006H17.4375C17.5867 7.80006 17.7297 7.73685 17.8352 7.62432C17.9407 7.5118 17.9999 7.35919 17.9999 7.20006C17.9999 7.04093 17.9407 6.88831 17.8352 6.77579C17.7297 6.66327 17.5867 6.60005 17.4375 6.60005H16.3127Z" fill="#4D70FF"/>
</svg>
