<svg width="47" height="29" viewBox="0 0 47 29" fill="none" xmlns="http://www.w3.org/2000/svg">
<path d="M6.39454 12.6779C9.92615 12.6779 12.7891 9.83985 12.7891 6.33895C12.7891 2.83804 9.92615 0 6.39454 0C2.86293 0 0 2.83804 0 6.33895C0 9.83985 2.86293 12.6779 6.39454 12.6779Z" fill="url(#paint0_linear)"/>
<path d="M23.434 12.6779C26.9656 12.6779 29.8285 9.83985 29.8285 6.33895C29.8285 2.83804 26.9656 0 23.434 0C19.9024 0 17.0394 2.83804 17.0394 6.33895C17.0394 9.83985 19.9024 12.6779 23.434 12.6779Z" fill="#2D24A3"/>
<path d="M23.3272 12.8542C26.8588 12.8542 29.7218 10.0161 29.7218 6.51522C29.7218 3.01431 26.8588 0.17627 23.3272 0.17627C19.7956 0.17627 16.9327 3.01431 16.9327 6.51522C16.9327 10.0161 19.7956 12.8542 23.3272 12.8542Z" fill="#2D25A4"/>
<path d="M23.2205 13.028C26.7521 13.028 29.6151 10.19 29.6151 6.68905C29.6151 3.18814 26.7521 0.350098 23.2205 0.350098C19.6889 0.350098 16.826 3.18814 16.826 6.68905C16.826 10.19 19.6889 13.028 23.2205 13.028Z" fill="#2E26A5"/>
<path d="M23.1138 13.2043C26.6454 13.2043 29.5084 10.3662 29.5084 6.86532C29.5084 3.36441 26.6454 0.526367 23.1138 0.526367C19.5822 0.526367 16.7193 3.36441 16.7193 6.86532C16.7193 10.3662 19.5822 13.2043 23.1138 13.2043Z" fill="#2E26A6"/>
<path d="M23.0071 13.3805C26.5388 13.3805 29.4017 10.5425 29.4017 7.04159C29.4017 3.54068 26.5388 0.702637 23.0071 0.702637C19.4755 0.702637 16.6126 3.54068 16.6126 7.04159C16.6126 10.5425 19.4755 13.3805 23.0071 13.3805Z" fill="#2E27A7"/>
<path d="M22.903 13.5544C26.4346 13.5544 29.2975 10.7163 29.2975 7.21541C29.2975 3.71451 26.4346 0.876465 22.903 0.876465C19.3714 0.876465 16.5084 3.71451 16.5084 7.21541C16.5084 10.7163 19.3714 13.5544 22.903 13.5544Z" fill="#2F28A8"/>
<path d="M22.7963 13.7306C26.3279 13.7306 29.1908 10.8926 29.1908 7.39168C29.1908 3.89078 26.3279 1.05273 22.7963 1.05273C19.2647 1.05273 16.4017 3.89078 16.4017 7.39168C16.4017 10.8926 19.2647 13.7306 22.7963 13.7306Z" fill="#2F29A9"/>
<path d="M22.6896 13.9069C26.2212 13.9069 29.0841 11.0689 29.0841 7.56795C29.0841 4.06705 26.2212 1.229 22.6896 1.229C19.158 1.229 16.295 4.06705 16.295 7.56795C16.295 11.0689 19.158 13.9069 22.6896 13.9069Z" fill="#2F2AAA"/>
<path d="M22.5829 14.0807C26.1145 14.0807 28.9774 11.2427 28.9774 7.74178C28.9774 4.24088 26.1145 1.40283 22.5829 1.40283C19.0513 1.40283 16.1884 4.24088 16.1884 7.74178C16.1884 11.2427 19.0513 14.0807 22.5829 14.0807Z" fill="#302BAB"/>
<path d="M22.4761 14.257C26.0077 14.257 28.8707 11.419 28.8707 7.91805C28.8707 4.41715 26.0077 1.5791 22.4761 1.5791C18.9445 1.5791 16.0816 4.41715 16.0816 7.91805C16.0816 11.419 18.9445 14.257 22.4761 14.257Z" fill="#302BAC"/>
<path d="M22.3695 14.4333C25.9011 14.4333 28.764 11.5952 28.764 8.09432C28.764 4.59342 25.9011 1.75537 22.3695 1.75537C18.8378 1.75537 15.9749 4.59342 15.9749 8.09432C15.9749 11.5952 18.8378 14.4333 22.3695 14.4333Z" fill="#302CAD"/>
<path d="M22.2628 14.6095C25.7944 14.6095 28.6573 11.7715 28.6573 8.27059C28.6573 4.76969 25.7944 1.93164 22.2628 1.93164C18.7312 1.93164 15.8682 4.76969 15.8682 8.27059C15.8682 11.7715 18.7312 14.6095 22.2628 14.6095Z" fill="#312DAE"/>
<path d="M22.1561 14.7834C25.6877 14.7834 28.5506 11.9453 28.5506 8.44442C28.5506 4.94351 25.6877 2.10547 22.1561 2.10547C18.6245 2.10547 15.7615 4.94351 15.7615 8.44442C15.7615 11.9453 18.6245 14.7834 22.1561 14.7834Z" fill="#312EAF"/>
<path d="M22.0493 14.9596C25.5809 14.9596 28.4439 12.1216 28.4439 8.62069C28.4439 5.11978 25.5809 2.28174 22.0493 2.28174C18.5177 2.28174 15.6548 5.11978 15.6548 8.62069C15.6548 12.1216 18.5177 14.9596 22.0493 14.9596Z" fill="#312FB0"/>
<path d="M21.9452 15.1359C25.4768 15.1359 28.3397 12.2979 28.3397 8.79696C28.3397 5.29605 25.4768 2.45801 21.9452 2.45801C18.4136 2.45801 15.5507 5.29605 15.5507 8.79696C15.5507 12.2979 18.4136 15.1359 21.9452 15.1359Z" fill="#322FB1"/>
<path d="M21.8385 15.3097C25.3701 15.3097 28.233 12.4717 28.233 8.97078C28.233 5.46988 25.3701 2.63184 21.8385 2.63184C18.3068 2.63184 15.4439 5.46988 15.4439 8.97078C15.4439 12.4717 18.3068 15.3097 21.8385 15.3097Z" fill="#3230B2"/>
<path d="M21.7318 15.486C25.2634 15.486 28.1263 12.648 28.1263 9.14706C28.1263 5.64615 25.2634 2.80811 21.7318 2.80811C18.2002 2.80811 15.3372 5.64615 15.3372 9.14706C15.3372 12.648 18.2002 15.486 21.7318 15.486Z" fill="#3331B3"/>
<path d="M21.6251 15.6623C25.1567 15.6623 28.0196 12.8242 28.0196 9.32332C28.0196 5.82242 25.1567 2.98438 21.6251 2.98438C18.0935 2.98438 15.2305 5.82242 15.2305 9.32332C15.2305 12.8242 18.0935 15.6623 21.6251 15.6623Z" fill="#3332B4"/>
<path d="M21.5184 15.8361C25.05 15.8361 27.9129 12.9981 27.9129 9.49715C27.9129 5.99625 25.05 3.1582 21.5184 3.1582C17.9868 3.1582 15.1238 5.99625 15.1238 9.49715C15.1238 12.9981 17.9868 15.8361 21.5184 15.8361Z" fill="#3333B5"/>
<path d="M21.4117 16.0124C24.9433 16.0124 27.8062 13.1743 27.8062 9.67342C27.8062 6.17252 24.9433 3.33447 21.4117 3.33447C17.8801 3.33447 15.0172 6.17252 15.0172 9.67342C15.0172 13.1743 17.8801 16.0124 21.4117 16.0124Z" fill="#3434B6"/>
<path d="M21.3049 16.1886C24.8366 16.1886 27.6995 13.3506 27.6995 9.84969C27.6995 6.34879 24.8366 3.51074 21.3049 3.51074C17.7733 3.51074 14.9104 6.34879 14.9104 9.84969C14.9104 13.3506 17.7733 16.1886 21.3049 16.1886Z" fill="#3434B7"/>
<path d="M21.1983 16.3625C24.7299 16.3625 27.5928 13.5244 27.5928 10.0235C27.5928 6.52261 24.7299 3.68457 21.1983 3.68457C17.6666 3.68457 14.8037 6.52261 14.8037 10.0235C14.8037 13.5244 17.6666 16.3625 21.1983 16.3625Z" fill="#3435B8"/>
<path d="M21.0916 16.5387C24.6232 16.5387 27.4861 13.7007 27.4861 10.1998C27.4861 6.69888 24.6232 3.86084 21.0916 3.86084C17.56 3.86084 14.697 6.69888 14.697 10.1998C14.697 13.7007 17.56 16.5387 21.0916 16.5387Z" fill="#3536B9"/>
<path d="M20.9849 16.715C24.5165 16.715 27.3794 13.877 27.3794 10.3761C27.3794 6.87515 24.5165 4.03711 20.9849 4.03711C17.4533 4.03711 14.5903 6.87515 14.5903 10.3761C14.5903 13.877 17.4533 16.715 20.9849 16.715Z" fill="#3537BA"/>
<path d="M20.8807 16.8913C24.4123 16.8913 27.2752 14.0532 27.2752 10.5523C27.2752 7.05142 24.4123 4.21338 20.8807 4.21338C17.3491 4.21338 14.4861 7.05142 14.4861 10.5523C14.4861 14.0532 17.3491 16.8913 20.8807 16.8913Z" fill="#3538BB"/>
<path d="M20.774 17.0651C24.3056 17.0651 27.1685 14.2271 27.1685 10.7262C27.1685 7.22525 24.3056 4.38721 20.774 4.38721C17.2424 4.38721 14.3795 7.22525 14.3795 10.7262C14.3795 14.2271 17.2424 17.0651 20.774 17.0651Z" fill="#3638BC"/>
<path d="M20.6673 17.2414C24.1989 17.2414 27.0618 14.4033 27.0618 10.9024C27.0618 7.40152 24.1989 4.56348 20.6673 4.56348C17.1357 4.56348 14.2728 7.40152 14.2728 10.9024C14.2728 14.4033 17.1357 17.2414 20.6673 17.2414Z" fill="#3639BD"/>
<path d="M20.5606 17.4176C24.0922 17.4176 26.9551 14.5796 26.9551 11.0787C26.9551 7.57779 24.0922 4.73975 20.5606 4.73975C17.0289 4.73975 14.166 7.57779 14.166 11.0787C14.166 14.5796 17.0289 17.4176 20.5606 17.4176Z" fill="#363ABE"/>
<path d="M20.4539 17.5915C23.9855 17.5915 26.8484 14.7534 26.8484 11.2525C26.8484 7.75162 23.9855 4.91357 20.4539 4.91357C16.9223 4.91357 14.0593 7.75162 14.0593 11.2525C14.0593 14.7534 16.9223 17.5915 20.4539 17.5915Z" fill="#373BBF"/>
<path d="M20.3472 17.7677C23.8788 17.7677 26.7417 14.9297 26.7417 11.4288C26.7417 7.92789 23.8788 5.08984 20.3472 5.08984C16.8156 5.08984 13.9526 7.92789 13.9526 11.4288C13.9526 14.9297 16.8156 17.7677 20.3472 17.7677Z" fill="#373CC0"/>
<path d="M20.2405 17.944C23.7721 17.944 26.635 15.106 26.635 11.6051C26.635 8.10416 23.7721 5.26611 20.2405 5.26611C16.7089 5.26611 13.8459 8.10416 13.8459 11.6051C13.8459 15.106 16.7089 17.944 20.2405 17.944Z" fill="#373DC1"/>
<path d="M20.1338 18.1178C23.6654 18.1178 26.5283 15.2798 26.5283 11.7789C26.5283 8.27799 23.6654 5.43994 20.1338 5.43994C16.6022 5.43994 13.7393 8.27799 13.7393 11.7789C13.7393 15.2798 16.6022 18.1178 20.1338 18.1178Z" fill="#383DC2"/>
<path d="M20.0271 18.2941C23.5587 18.2941 26.4216 15.4561 26.4216 11.9552C26.4216 8.45426 23.5587 5.61621 20.0271 5.61621C16.4954 5.61621 13.6325 8.45426 13.6325 11.9552C13.6325 15.4561 16.4954 18.2941 20.0271 18.2941Z" fill="#383EC3"/>
<path d="M19.9229 18.4704C23.4545 18.4704 26.3175 15.6323 26.3175 12.1314C26.3175 8.63052 23.4545 5.79248 19.9229 5.79248C16.3913 5.79248 13.5284 8.63052 13.5284 12.1314C13.5284 15.6323 16.3913 18.4704 19.9229 18.4704Z" fill="#383FC4"/>
<path d="M19.8162 18.6442C23.3478 18.6442 26.2108 15.8062 26.2108 12.3053C26.2108 8.80435 23.3478 5.96631 19.8162 5.96631C16.2846 5.96631 13.4217 8.80435 13.4217 12.3053C13.4217 15.8062 16.2846 18.6442 19.8162 18.6442Z" fill="#3940C5"/>
<path d="M19.7095 18.8205C23.2411 18.8205 26.104 15.9824 26.104 12.4815C26.104 8.98062 23.2411 6.14258 19.7095 6.14258C16.1779 6.14258 13.3149 8.98062 13.3149 12.4815C13.3149 15.9824 16.1779 18.8205 19.7095 18.8205Z" fill="#3941C6"/>
<path d="M19.6028 18.9968C23.1344 18.9968 25.9973 16.1587 25.9973 12.6578C25.9973 9.15689 23.1344 6.31885 19.6028 6.31885C16.0712 6.31885 13.2083 9.15689 13.2083 12.6578C13.2083 16.1587 16.0712 18.9968 19.6028 18.9968Z" fill="#3941C7"/>
<path d="M19.4961 19.173C23.0277 19.173 25.8906 16.335 25.8906 12.8341C25.8906 9.33316 23.0277 6.49512 19.4961 6.49512C15.9645 6.49512 13.1016 9.33316 13.1016 12.8341C13.1016 16.335 15.9645 19.173 19.4961 19.173Z" fill="#3A42C8"/>
<path d="M19.3894 19.3468C22.921 19.3468 25.784 16.5088 25.784 13.0079C25.784 9.50699 22.921 6.66895 19.3894 6.66895C15.8578 6.66895 12.9949 9.50699 12.9949 13.0079C12.9949 16.5088 15.8578 19.3468 19.3894 19.3468Z" fill="#3A43C9"/>
<path d="M19.2827 19.5231C22.8143 19.5231 25.6773 16.6851 25.6773 13.1842C25.6773 9.68326 22.8143 6.84521 19.2827 6.84521C15.7511 6.84521 12.8882 9.68326 12.8882 13.1842C12.8882 16.6851 15.7511 19.5231 19.2827 19.5231Z" fill="#3A44CA"/>
<path d="M19.176 19.6994C22.7076 19.6994 25.5705 16.8613 25.5705 13.3604C25.5705 9.85953 22.7076 7.02148 19.176 7.02148C15.6444 7.02148 12.7814 9.85953 12.7814 13.3604C12.7814 16.8613 15.6444 19.6994 19.176 19.6994Z" fill="#3B45CB"/>
<path d="M19.0693 19.8732C22.6009 19.8732 25.4638 17.0352 25.4638 13.5343C25.4638 10.0334 22.6009 7.19531 19.0693 7.19531C15.5377 7.19531 12.6747 10.0334 12.6747 13.5343C12.6747 17.0352 15.5377 19.8732 19.0693 19.8732Z" fill="#3B46CC"/>
<path d="M18.9651 20.0495C22.4967 20.0495 25.3596 17.2114 25.3596 13.7105C25.3596 10.2096 22.4967 7.37158 18.9651 7.37158C15.4335 7.37158 12.5706 10.2096 12.5706 13.7105C12.5706 17.2114 15.4335 20.0495 18.9651 20.0495Z" fill="#3B46CD"/>
<path d="M18.8584 20.2258C22.39 20.2258 25.2529 17.3877 25.2529 13.8868C25.2529 10.3859 22.39 7.54785 18.8584 7.54785C15.3268 7.54785 12.4639 10.3859 12.4639 13.8868C12.4639 17.3877 15.3268 20.2258 18.8584 20.2258Z" fill="#3C47CE"/>
<path d="M18.7517 20.3996C22.2833 20.3996 25.1463 17.5615 25.1463 14.0606C25.1463 10.5597 22.2833 7.72168 18.7517 7.72168C15.2201 7.72168 12.3572 10.5597 12.3572 14.0606C12.3572 17.5615 15.2201 20.3996 18.7517 20.3996Z" fill="#3C48CF"/>
<path d="M18.645 20.5758C22.1766 20.5758 25.0396 17.7378 25.0396 14.2369C25.0396 10.736 22.1766 7.89795 18.645 7.89795C15.1134 7.89795 12.2505 10.736 12.2505 14.2369C12.2505 17.7378 15.1134 20.5758 18.645 20.5758Z" fill="#3C49D0"/>
<path d="M18.5383 20.7521C22.07 20.7521 24.9329 17.9141 24.9329 14.4132C24.9329 10.9123 22.07 8.07422 18.5383 8.07422C15.0067 8.07422 12.1438 10.9123 12.1438 14.4132C12.1438 17.9141 15.0067 20.7521 18.5383 20.7521Z" fill="#3D4AD1"/>
<path d="M18.4316 20.9259C21.9632 20.9259 24.8261 18.0879 24.8261 14.587C24.8261 11.0861 21.9632 8.24805 18.4316 8.24805C14.9 8.24805 12.037 11.0861 12.037 14.587C12.037 18.0879 14.9 20.9259 18.4316 20.9259Z" fill="#3D4AD1"/>
<path d="M18.3249 21.1022C21.8565 21.1022 24.7194 18.2642 24.7194 14.7633C24.7194 11.2624 21.8565 8.42432 18.3249 8.42432C14.7933 8.42432 11.9304 11.2624 11.9304 14.7633C11.9304 18.2642 14.7933 21.1022 18.3249 21.1022Z" fill="#3E4BD2"/>
<path d="M18.2182 21.2785C21.7498 21.2785 24.6128 18.4404 24.6128 14.9395C24.6128 11.4386 21.7498 8.60059 18.2182 8.60059C14.6866 8.60059 11.8237 11.4386 11.8237 14.9395C11.8237 18.4404 14.6866 21.2785 18.2182 21.2785Z" fill="#3E4CD3"/>
<path d="M18.1115 21.4548C21.6431 21.4548 24.5061 18.6167 24.5061 15.1158C24.5061 11.6149 21.6431 8.77686 18.1115 8.77686C14.5799 8.77686 11.717 11.6149 11.717 15.1158C11.717 18.6167 14.5799 21.4548 18.1115 21.4548Z" fill="#3E4DD4"/>
<path d="M18.0048 21.6286C21.5364 21.6286 24.3994 18.7905 24.3994 15.2896C24.3994 11.7887 21.5364 8.95068 18.0048 8.95068C14.4732 8.95068 11.6103 11.7887 11.6103 15.2896C11.6103 18.7905 14.4732 21.6286 18.0048 21.6286Z" fill="#3F4ED5"/>
<path d="M17.9006 21.8049C21.4323 21.8049 24.2952 18.9668 24.2952 15.4659C24.2952 11.965 21.4323 9.12695 17.9006 9.12695C14.369 9.12695 11.5061 11.965 11.5061 15.4659C11.5061 18.9668 14.369 21.8049 17.9006 21.8049Z" fill="#3F4ED6"/>
<path d="M17.794 21.9811C21.3256 21.9811 24.1885 19.1431 24.1885 15.6422C24.1885 12.1413 21.3256 9.30322 17.794 9.30322C14.2623 9.30322 11.3994 12.1413 11.3994 15.6422C11.3994 19.1431 14.2623 21.9811 17.794 21.9811Z" fill="#3F4FD7"/>
<path d="M17.6873 22.1549C21.2189 22.1549 24.0818 19.3169 24.0818 15.816C24.0818 12.3151 21.2189 9.47705 17.6873 9.47705C14.1557 9.47705 11.2927 12.3151 11.2927 15.816C11.2927 19.3169 14.1557 22.1549 17.6873 22.1549Z" fill="#4050D8"/>
<path d="M17.5805 22.3312C21.1121 22.3312 23.9751 19.4932 23.9751 15.9923C23.9751 12.4914 21.1121 9.65332 17.5805 9.65332C14.0489 9.65332 11.186 12.4914 11.186 15.9923C11.186 19.4932 14.0489 22.3312 17.5805 22.3312Z" fill="#4051D9"/>
<path d="M17.4738 22.5075C21.0054 22.5075 23.8684 19.6694 23.8684 16.1685C23.8684 12.6676 21.0054 9.82959 17.4738 9.82959C13.9422 9.82959 11.0793 12.6676 11.0793 16.1685C11.0793 19.6694 13.9422 22.5075 17.4738 22.5075Z" fill="#4052DA"/>
<path d="M17.3671 22.6808C20.8987 22.6808 23.7617 19.8428 23.7617 16.3419C23.7617 12.841 20.8987 10.0029 17.3671 10.0029C13.8355 10.0029 10.9726 12.841 10.9726 16.3419C10.9726 19.8428 13.8355 22.6808 17.3671 22.6808Z" fill="#4153DB"/>
<path d="M17.2604 22.8576C20.7921 22.8576 23.655 20.0195 23.655 16.5186C23.655 13.0177 20.7921 10.1797 17.2604 10.1797C13.7288 10.1797 10.8659 13.0177 10.8659 16.5186C10.8659 20.0195 13.7288 22.8576 17.2604 22.8576Z" fill="#4153DC"/>
<path d="M17.1537 23.0339C20.6853 23.0339 23.5482 20.1958 23.5482 16.6949C23.5482 13.194 20.6853 10.356 17.1537 10.356C13.6221 10.356 10.7592 13.194 10.7592 16.6949C10.7592 20.1958 13.6221 23.0339 17.1537 23.0339Z" fill="#4154DD"/>
<path d="M17.047 23.2077C20.5786 23.2077 23.4415 20.3696 23.4415 16.8687C23.4415 13.3678 20.5786 10.5298 17.047 10.5298C13.5154 10.5298 10.6525 13.3678 10.6525 16.8687C10.6525 20.3696 13.5154 23.2077 17.047 23.2077Z" fill="#4255DE"/>
<path d="M16.9429 23.384C20.4745 23.384 23.3374 20.5459 23.3374 17.045C23.3374 13.5441 20.4745 10.7061 16.9429 10.7061C13.4113 10.7061 10.5483 13.5441 10.5483 17.045C10.5483 20.5459 13.4113 23.384 16.9429 23.384Z" fill="#4256DF"/>
<path d="M16.8361 23.5602C20.3677 23.5602 23.2307 20.7222 23.2307 17.2213C23.2307 13.7204 20.3677 10.8823 16.8361 10.8823C13.3045 10.8823 10.4416 13.7204 10.4416 17.2213C10.4416 20.7222 13.3045 23.5602 16.8361 23.5602Z" fill="#4257E0"/>
<path d="M16.7294 23.734C20.261 23.734 23.124 20.896 23.124 17.3951C23.124 13.8942 20.261 11.0562 16.7294 11.0562C13.1978 11.0562 10.3349 13.8942 10.3349 17.3951C10.3349 20.896 13.1978 23.734 16.7294 23.734Z" fill="#4357E1"/>
<path d="M16.6228 23.9103C20.1544 23.9103 23.0173 21.0723 23.0173 17.5714C23.0173 14.0705 20.1544 11.2324 16.6228 11.2324C13.0911 11.2324 10.2282 14.0705 10.2282 17.5714C10.2282 21.0723 13.0911 23.9103 16.6228 23.9103Z" fill="#4358E2"/>
<path d="M16.5161 24.0866C20.0477 24.0866 22.9106 21.2485 22.9106 17.7476C22.9106 14.2467 20.0477 11.4087 16.5161 11.4087C12.9845 11.4087 10.1215 14.2467 10.1215 17.7476C10.1215 21.2485 12.9845 24.0866 16.5161 24.0866Z" fill="#4359E3"/>
<path d="M16.4094 24.2629C19.941 24.2629 22.8039 21.4248 22.8039 17.9239C22.8039 14.423 19.941 11.585 16.4094 11.585C12.8778 11.585 10.0148 14.423 10.0148 17.9239C10.0148 21.4248 12.8778 24.2629 16.4094 24.2629Z" fill="#445AE4"/>
<path d="M16.3026 24.4367C19.8342 24.4367 22.6972 21.5986 22.6972 18.0977C22.6972 14.5968 19.8342 11.7588 16.3026 11.7588C12.771 11.7588 9.90808 14.5968 9.90808 18.0977C9.90808 21.5986 12.771 24.4367 16.3026 24.4367Z" fill="#445BE5"/>
<path d="M16.1959 24.613C19.7275 24.613 22.5905 21.7749 22.5905 18.274C22.5905 14.7731 19.7275 11.9351 16.1959 11.9351C12.6643 11.9351 9.80139 14.7731 9.80139 18.274C9.80139 21.7749 12.6643 24.613 16.1959 24.613Z" fill="#445CE6"/>
<path d="M16.0892 24.7892C19.6209 24.7892 22.4838 21.9512 22.4838 18.4503C22.4838 14.9494 19.6209 12.1113 16.0892 12.1113C12.5576 12.1113 9.6947 14.9494 9.6947 18.4503C9.6947 21.9512 12.5576 24.7892 16.0892 24.7892Z" fill="#455CE7"/>
<path d="M15.9851 24.9631C19.5167 24.9631 22.3796 22.125 22.3796 18.6241C22.3796 15.1232 19.5167 12.2852 15.9851 12.2852C12.4534 12.2852 9.59052 15.1232 9.59052 18.6241C9.59052 22.125 12.4534 24.9631 15.9851 24.9631Z" fill="#455DE8"/>
<path d="M15.8784 25.1393C19.41 25.1393 22.2729 22.3013 22.2729 18.8004C22.2729 15.2995 19.41 12.4614 15.8784 12.4614C12.3468 12.4614 9.48383 15.2995 9.48383 18.8004C9.48383 22.3013 12.3468 25.1393 15.8784 25.1393Z" fill="#455EE9"/>
<path d="M15.7717 25.3156C19.3033 25.3156 22.1662 22.4776 22.1662 18.9766C22.1662 15.4757 19.3033 12.6377 15.7717 12.6377C12.2401 12.6377 9.37714 15.4757 9.37714 18.9766C9.37714 22.4776 12.2401 25.3156 15.7717 25.3156Z" fill="#465FEA"/>
<path d="M15.665 25.4894C19.1966 25.4894 22.0595 22.6514 22.0595 19.1505C22.0595 15.6496 19.1966 12.8115 15.665 12.8115C12.1334 12.8115 9.27045 15.6496 9.27045 19.1505C9.27045 22.6514 12.1334 25.4894 15.665 25.4894Z" fill="#4660EB"/>
<path d="M15.5582 25.6657C19.0898 25.6657 21.9528 22.8276 21.9528 19.3267C21.9528 15.8258 19.0898 12.9878 15.5582 12.9878C12.0266 12.9878 9.1637 15.8258 9.1637 19.3267C9.1637 22.8276 12.0266 25.6657 15.5582 25.6657Z" fill="#4660EC"/>
<path d="M15.4515 25.842C18.9832 25.842 21.8461 23.0039 21.8461 19.503C21.8461 16.0021 18.9832 13.1641 15.4515 13.1641C11.9199 13.1641 9.05701 16.0021 9.05701 19.503C9.05701 23.0039 11.9199 25.842 15.4515 25.842Z" fill="#4761ED"/>
<path d="M15.3449 26.0158C18.8765 26.0158 21.7394 23.1777 21.7394 19.6768C21.7394 16.1759 18.8765 13.3379 15.3449 13.3379C11.8133 13.3379 8.95032 16.1759 8.95032 19.6768C8.95032 23.1777 11.8133 26.0158 15.3449 26.0158Z" fill="#4762EE"/>
<path d="M15.2382 26.1916C18.7698 26.1916 21.6327 23.3535 21.6327 19.8526C21.6327 16.3517 18.7698 13.5137 15.2382 13.5137C11.7066 13.5137 8.84363 16.3517 8.84363 19.8526C8.84363 23.3535 11.7066 26.1916 15.2382 26.1916Z" fill="#4763EF"/>
<path d="M15.1315 26.3683C18.6631 26.3683 21.526 23.5303 21.526 20.0294C21.526 16.5285 18.6631 13.6904 15.1315 13.6904C11.5999 13.6904 8.73694 16.5285 8.73694 20.0294C8.73694 23.5303 11.5999 26.3683 15.1315 26.3683Z" fill="#4864F0"/>
<path d="M15.0247 26.5446C18.5563 26.5446 21.4193 23.7066 21.4193 20.2057C21.4193 16.7047 18.5563 13.8667 15.0247 13.8667C11.4931 13.8667 8.63019 16.7047 8.63019 20.2057C8.63019 23.7066 11.4931 26.5446 15.0247 26.5446Z" fill="#4865F1"/>
<path d="M14.9206 26.7184C18.4522 26.7184 21.3151 23.8804 21.3151 20.3795C21.3151 16.8786 18.4522 14.0405 14.9206 14.0405C11.389 14.0405 8.52606 16.8786 8.52606 20.3795C8.52606 23.8804 11.389 26.7184 14.9206 26.7184Z" fill="#4965F2"/>
<path d="M14.8139 26.8947C18.3455 26.8947 21.2085 24.0567 21.2085 20.5557C21.2085 17.0548 18.3455 14.2168 14.8139 14.2168C11.2823 14.2168 8.41937 17.0548 8.41937 20.5557C8.41937 24.0567 11.2823 26.8947 14.8139 26.8947Z" fill="#4966F3"/>
<path d="M14.7072 27.071C18.2388 27.071 21.1017 24.2329 21.1017 20.732C21.1017 17.2311 18.2388 14.3931 14.7072 14.3931C11.1756 14.3931 8.31262 17.2311 8.31262 20.732C8.31262 24.2329 11.1756 27.071 14.7072 27.071Z" fill="#4967F4"/>
<path d="M14.6005 27.2448C18.1321 27.2448 20.995 24.4067 20.995 20.9058C20.995 17.4049 18.1321 14.5669 14.6005 14.5669C11.0689 14.5669 8.20593 17.4049 8.20593 20.9058C8.20593 24.4067 11.0689 27.2448 14.6005 27.2448Z" fill="#4A68F5"/>
<path d="M14.4938 27.4211C18.0254 27.4211 20.8883 24.583 20.8883 21.0821C20.8883 17.5812 18.0254 14.7432 14.4938 14.7432C10.9622 14.7432 8.09924 17.5812 8.09924 21.0821C8.09924 24.583 10.9622 27.4211 14.4938 27.4211Z" fill="#4A69F6"/>
<path d="M14.3871 27.5968C17.9187 27.5968 20.7816 24.7588 20.7816 21.2579C20.7816 17.757 17.9187 14.9189 14.3871 14.9189C10.8555 14.9189 7.99255 17.757 7.99255 21.2579C7.99255 24.7588 10.8555 27.5968 14.3871 27.5968Z" fill="#4A69F7"/>
<path d="M14.2804 27.7707C17.812 27.7707 20.6749 24.9326 20.6749 21.4317C20.6749 17.9308 17.812 15.0928 14.2804 15.0928C10.7488 15.0928 7.88586 17.9308 7.88586 21.4317C7.88586 24.9326 10.7488 27.7707 14.2804 27.7707Z" fill="#4B6AF8"/>
<path d="M14.1737 27.9474C17.7053 27.9474 20.5682 25.1094 20.5682 21.6085C20.5682 18.1076 17.7053 15.2695 14.1737 15.2695C10.642 15.2695 7.77911 18.1076 7.77911 21.6085C7.77911 25.1094 10.642 27.9474 14.1737 27.9474Z" fill="#4B6BF9"/>
<path d="M14.067 28.1237C17.5986 28.1237 20.4615 25.2857 20.4615 21.7848C20.4615 18.2838 17.5986 15.4458 14.067 15.4458C10.5354 15.4458 7.67242 18.2838 7.67242 21.7848C7.67242 25.2857 10.5354 28.1237 14.067 28.1237Z" fill="#4B6CFA"/>
<path d="M13.9628 28.2975C17.4944 28.2975 20.3573 25.4595 20.3573 21.9586C20.3573 18.4577 17.4944 15.6196 13.9628 15.6196C10.4312 15.6196 7.56824 18.4577 7.56824 21.9586C7.56824 25.4595 10.4312 28.2975 13.9628 28.2975Z" fill="#4C6DFB"/>
<path d="M13.8561 28.4733C17.3877 28.4733 20.2506 25.6353 20.2506 22.1344C20.2506 18.6335 17.3877 15.7954 13.8561 15.7954C10.3245 15.7954 7.46155 18.6335 7.46155 22.1344C7.46155 25.6353 10.3245 28.4733 13.8561 28.4733Z" fill="#4C6EFC"/>
<path d="M13.7494 28.6501C17.281 28.6501 20.1439 25.812 20.1439 22.3111C20.1439 18.8102 17.281 15.9722 13.7494 15.9722C10.2178 15.9722 7.35486 18.8102 7.35486 22.3111C7.35486 25.812 10.2178 28.6501 13.7494 28.6501Z" fill="#4C6EFD"/>
<path d="M13.6427 28.8263C17.1743 28.8263 20.0373 25.9883 20.0373 22.4874C20.0373 18.9865 17.1743 16.1484 13.6427 16.1484C10.1111 16.1484 7.24817 18.9865 7.24817 22.4874C7.24817 25.9883 10.1111 28.8263 13.6427 28.8263Z" fill="#4D6FFE"/>
<path d="M13.536 29.0002C17.0676 29.0002 19.9306 26.1621 19.9306 22.6612C19.9306 19.1603 17.0676 16.3223 13.536 16.3223C10.0044 16.3223 7.14148 19.1603 7.14148 22.6612C7.14148 26.1621 10.0044 29.0002 13.536 29.0002Z" fill="#4D70FF"/>
<path d="M40.6055 12.6779C44.1371 12.6779 47 9.83985 47 6.33895C47 2.83804 44.1371 0 40.6055 0C37.0739 0 34.2109 2.83804 34.2109 6.33895C34.2109 9.83985 37.0739 12.6779 40.6055 12.6779Z" fill="#2D24A3"/>
<path d="M40.4988 12.8542C44.0304 12.8542 46.8933 10.0161 46.8933 6.51522C46.8933 3.01431 44.0304 0.17627 40.4988 0.17627C36.9672 0.17627 34.1042 3.01431 34.1042 6.51522C34.1042 10.0161 36.9672 12.8542 40.4988 12.8542Z" fill="#2D25A4"/>
<path d="M40.392 13.028C43.9236 13.028 46.7866 10.19 46.7866 6.68905C46.7866 3.18814 43.9236 0.350098 40.392 0.350098C36.8604 0.350098 33.9975 3.18814 33.9975 6.68905C33.9975 10.19 36.8604 13.028 40.392 13.028Z" fill="#2E26A5"/>
<path d="M40.2854 13.2043C43.817 13.2043 46.6799 10.3662 46.6799 6.86532C46.6799 3.36441 43.817 0.526367 40.2854 0.526367C36.7537 0.526367 33.8908 3.36441 33.8908 6.86532C33.8908 10.3662 36.7537 13.2043 40.2854 13.2043Z" fill="#2E26A6"/>
<path d="M40.1787 13.3805C43.7103 13.3805 46.5732 10.5425 46.5732 7.04159C46.5732 3.54068 43.7103 0.702637 40.1787 0.702637C36.6471 0.702637 33.7841 3.54068 33.7841 7.04159C33.7841 10.5425 36.6471 13.3805 40.1787 13.3805Z" fill="#2E27A7"/>
<path d="M40.0745 13.5544C43.6061 13.5544 46.469 10.7163 46.469 7.21541C46.469 3.71451 43.6061 0.876465 40.0745 0.876465C36.5429 0.876465 33.6799 3.71451 33.6799 7.21541C33.6799 10.7163 36.5429 13.5544 40.0745 13.5544Z" fill="#2F28A8"/>
<path d="M39.9678 13.7306C43.4994 13.7306 46.3623 10.8926 46.3623 7.39168C46.3623 3.89078 43.4994 1.05273 39.9678 1.05273C36.4362 1.05273 33.5732 3.89078 33.5732 7.39168C33.5732 10.8926 36.4362 13.7306 39.9678 13.7306Z" fill="#2F29A9"/>
<path d="M39.8611 13.9069C43.3927 13.9069 46.2556 11.0689 46.2556 7.56795C46.2556 4.06705 43.3927 1.229 39.8611 1.229C36.3295 1.229 33.4666 4.06705 33.4666 7.56795C33.4666 11.0689 36.3295 13.9069 39.8611 13.9069Z" fill="#2F2AAA"/>
<path d="M39.7544 14.0807C43.286 14.0807 46.1489 11.2427 46.1489 7.74178C46.1489 4.24088 43.286 1.40283 39.7544 1.40283C36.2228 1.40283 33.3599 4.24088 33.3599 7.74178C33.3599 11.2427 36.2228 14.0807 39.7544 14.0807Z" fill="#302BAB"/>
<path d="M39.6477 14.257C43.1793 14.257 46.0422 11.419 46.0422 7.91805C46.0422 4.41715 43.1793 1.5791 39.6477 1.5791C36.116 1.5791 33.2531 4.41715 33.2531 7.91805C33.2531 11.419 36.116 14.257 39.6477 14.257Z" fill="#302BAC"/>
<path d="M39.541 14.4333C43.0726 14.4333 45.9355 11.5952 45.9355 8.09432C45.9355 4.59342 43.0726 1.75537 39.541 1.75537C36.0094 1.75537 33.1464 4.59342 33.1464 8.09432C33.1464 11.5952 36.0094 14.4333 39.541 14.4333Z" fill="#302CAD"/>
<path d="M39.4343 14.6095C42.9659 14.6095 45.8288 11.7715 45.8288 8.27059C45.8288 4.76969 42.9659 1.93164 39.4343 1.93164C35.9027 1.93164 33.0397 4.76969 33.0397 8.27059C33.0397 11.7715 35.9027 14.6095 39.4343 14.6095Z" fill="#312DAE"/>
<path d="M39.3276 14.7834C42.8592 14.7834 45.7221 11.9453 45.7221 8.44442C45.7221 4.94351 42.8592 2.10547 39.3276 2.10547C35.796 2.10547 32.933 4.94351 32.933 8.44442C32.933 11.9453 35.796 14.7834 39.3276 14.7834Z" fill="#312EAF"/>
<path d="M39.2208 14.9596C42.7524 14.9596 45.6154 12.1216 45.6154 8.62069C45.6154 5.11978 42.7524 2.28174 39.2208 2.28174C35.6892 2.28174 32.8263 5.11978 32.8263 8.62069C32.8263 12.1216 35.6892 14.9596 39.2208 14.9596Z" fill="#312FB0"/>
<path d="M39.1167 15.1359C42.6483 15.1359 45.5112 12.2979 45.5112 8.79696C45.5112 5.29605 42.6483 2.45801 39.1167 2.45801C35.5851 2.45801 32.7222 5.29605 32.7222 8.79696C32.7222 12.2979 35.5851 15.1359 39.1167 15.1359Z" fill="#322FB1"/>
<path d="M39.01 15.3097C42.5416 15.3097 45.4046 12.4717 45.4046 8.97078C45.4046 5.46988 42.5416 2.63184 39.01 2.63184C35.4784 2.63184 32.6155 5.46988 32.6155 8.97078C32.6155 12.4717 35.4784 15.3097 39.01 15.3097Z" fill="#3230B2"/>
<path d="M38.9033 15.486C42.4349 15.486 45.2979 12.648 45.2979 9.14706C45.2979 5.64615 42.4349 2.80811 38.9033 2.80811C35.3717 2.80811 32.5088 5.64615 32.5088 9.14706C32.5088 12.648 35.3717 15.486 38.9033 15.486Z" fill="#3331B3"/>
<path d="M38.7966 15.6623C42.3282 15.6623 45.1911 12.8242 45.1911 9.32332C45.1911 5.82242 42.3282 2.98438 38.7966 2.98438C35.265 2.98438 32.402 5.82242 32.402 9.32332C32.402 12.8242 35.265 15.6623 38.7966 15.6623Z" fill="#3332B4"/>
<path d="M38.6899 15.8361C42.2215 15.8361 45.0844 12.9981 45.0844 9.49715C45.0844 5.99625 42.2215 3.1582 38.6899 3.1582C35.1583 3.1582 32.2953 5.99625 32.2953 9.49715C32.2953 12.9981 35.1583 15.8361 38.6899 15.8361Z" fill="#3333B5"/>
<path d="M38.5832 16.0124C42.1148 16.0124 44.9777 13.1743 44.9777 9.67342C44.9777 6.17252 42.1148 3.33447 38.5832 3.33447C35.0516 3.33447 32.1887 6.17252 32.1887 9.67342C32.1887 13.1743 35.0516 16.0124 38.5832 16.0124Z" fill="#3434B6"/>
<path d="M38.4765 16.1886C42.0081 16.1886 44.8711 13.3506 44.8711 9.84969C44.8711 6.34879 42.0081 3.51074 38.4765 3.51074C34.9449 3.51074 32.082 6.34879 32.082 9.84969C32.082 13.3506 34.9449 16.1886 38.4765 16.1886Z" fill="#3434B7"/>
<path d="M38.3698 16.3625C41.9014 16.3625 44.7644 13.5244 44.7644 10.0235C44.7644 6.52261 41.9014 3.68457 38.3698 3.68457C34.8382 3.68457 31.9753 6.52261 31.9753 10.0235C31.9753 13.5244 34.8382 16.3625 38.3698 16.3625Z" fill="#3435B8"/>
<path d="M38.2631 16.5387C41.7947 16.5387 44.6576 13.7007 44.6576 10.1998C44.6576 6.69888 41.7947 3.86084 38.2631 3.86084C34.7315 3.86084 31.8685 6.69888 31.8685 10.1998C31.8685 13.7007 34.7315 16.5387 38.2631 16.5387Z" fill="#3536B9"/>
<path d="M38.1589 16.715C41.6905 16.715 44.5535 13.877 44.5535 10.3761C44.5535 6.87515 41.6905 4.03711 38.1589 4.03711C34.6273 4.03711 31.7644 6.87515 31.7644 10.3761C31.7644 13.877 34.6273 16.715 38.1589 16.715Z" fill="#3537BA"/>
<path d="M38.0523 16.8913C41.5839 16.8913 44.4468 14.0532 44.4468 10.5523C44.4468 7.05142 41.5839 4.21338 38.0523 4.21338C34.5206 4.21338 31.6577 7.05142 31.6577 10.5523C31.6577 14.0532 34.5206 16.8913 38.0523 16.8913Z" fill="#3538BB"/>
<path d="M37.9455 17.0651C41.4771 17.0651 44.34 14.2271 44.34 10.7262C44.34 7.22525 41.4771 4.38721 37.9455 4.38721C34.4139 4.38721 31.551 7.22525 31.551 10.7262C31.551 14.2271 34.4139 17.0651 37.9455 17.0651Z" fill="#3638BC"/>
<path d="M37.8388 17.2414C41.3704 17.2414 44.2334 14.4033 44.2334 10.9024C44.2334 7.40152 41.3704 4.56348 37.8388 4.56348C34.3072 4.56348 31.4443 7.40152 31.4443 10.9024C31.4443 14.4033 34.3072 17.2414 37.8388 17.2414Z" fill="#3639BD"/>
<path d="M37.7321 17.4176C41.2637 17.4176 44.1267 14.5796 44.1267 11.0787C44.1267 7.57779 41.2637 4.73975 37.7321 4.73975C34.2005 4.73975 31.3376 7.57779 31.3376 11.0787C31.3376 14.5796 34.2005 17.4176 37.7321 17.4176Z" fill="#363ABE"/>
<path d="M37.6254 17.5915C41.157 17.5915 44.0199 14.7534 44.0199 11.2525C44.0199 7.75162 41.157 4.91357 37.6254 4.91357C34.0938 4.91357 31.2308 7.75162 31.2308 11.2525C31.2308 14.7534 34.0938 17.5915 37.6254 17.5915Z" fill="#373BBF"/>
<path d="M37.5187 17.7677C41.0503 17.7677 43.9132 14.9297 43.9132 11.4288C43.9132 7.92789 41.0503 5.08984 37.5187 5.08984C33.9871 5.08984 31.1241 7.92789 31.1241 11.4288C31.1241 14.9297 33.9871 17.7677 37.5187 17.7677Z" fill="#373CC0"/>
<path d="M37.412 17.944C40.9436 17.944 43.8065 15.106 43.8065 11.6051C43.8065 8.10416 40.9436 5.26611 37.412 5.26611C33.8804 5.26611 31.0175 8.10416 31.0175 11.6051C31.0175 15.106 33.8804 17.944 37.412 17.944Z" fill="#373DC1"/>
<path d="M37.3053 18.1178C40.8369 18.1178 43.6998 15.2798 43.6998 11.7789C43.6998 8.27799 40.8369 5.43994 37.3053 5.43994C33.7737 5.43994 30.9108 8.27799 30.9108 11.7789C30.9108 15.2798 33.7737 18.1178 37.3053 18.1178Z" fill="#383DC2"/>
<path d="M37.1986 18.2941C40.7302 18.2941 43.5932 15.4561 43.5932 11.9552C43.5932 8.45426 40.7302 5.61621 37.1986 5.61621C33.667 5.61621 30.8041 8.45426 30.8041 11.9552C30.8041 15.4561 33.667 18.2941 37.1986 18.2941Z" fill="#383EC3"/>
<path d="M37.0944 18.4704C40.626 18.4704 43.489 15.6323 43.489 12.1314C43.489 8.63052 40.626 5.79248 37.0944 5.79248C33.5628 5.79248 30.6999 8.63052 30.6999 12.1314C30.6999 15.6323 33.5628 18.4704 37.0944 18.4704Z" fill="#383FC4"/>
<path d="M36.9877 18.6442C40.5193 18.6442 43.3823 15.8062 43.3823 12.3053C43.3823 8.80435 40.5193 5.96631 36.9877 5.96631C33.4561 5.96631 30.5932 8.80435 30.5932 12.3053C30.5932 15.8062 33.4561 18.6442 36.9877 18.6442Z" fill="#3940C5"/>
<path d="M36.881 18.8205C40.4127 18.8205 43.2756 15.9824 43.2756 12.4815C43.2756 8.98062 40.4127 6.14258 36.881 6.14258C33.3494 6.14258 30.4865 8.98062 30.4865 12.4815C30.4865 15.9824 33.3494 18.8205 36.881 18.8205Z" fill="#3941C6"/>
<path d="M36.7743 18.9968C40.3059 18.9968 43.1688 16.1587 43.1688 12.6578C43.1688 9.15689 40.3059 6.31885 36.7743 6.31885C33.2427 6.31885 30.3798 9.15689 30.3798 12.6578C30.3798 16.1587 33.2427 18.9968 36.7743 18.9968Z" fill="#3941C7"/>
<path d="M36.6676 19.173C40.1992 19.173 43.0622 16.335 43.0622 12.8341C43.0622 9.33316 40.1992 6.49512 36.6676 6.49512C33.136 6.49512 30.2731 9.33316 30.2731 12.8341C30.2731 16.335 33.136 19.173 36.6676 19.173Z" fill="#3A42C8"/>
<path d="M36.5609 19.3468C40.0925 19.3468 42.9555 16.5088 42.9555 13.0079C42.9555 9.50699 40.0925 6.66895 36.5609 6.66895C33.0293 6.66895 30.1664 9.50699 30.1664 13.0079C30.1664 16.5088 33.0293 19.3468 36.5609 19.3468Z" fill="#3A43C9"/>
<path d="M36.4542 19.5231C39.9858 19.5231 42.8488 16.6851 42.8488 13.1842C42.8488 9.68326 39.9858 6.84521 36.4542 6.84521C32.9226 6.84521 30.0597 9.68326 30.0597 13.1842C30.0597 16.6851 32.9226 19.5231 36.4542 19.5231Z" fill="#3A44CA"/>
<path d="M36.3475 19.6994C39.8791 19.6994 42.7421 16.8613 42.7421 13.3604C42.7421 9.85953 39.8791 7.02148 36.3475 7.02148C32.8159 7.02148 29.953 9.85953 29.953 13.3604C29.953 16.8613 32.8159 19.6994 36.3475 19.6994Z" fill="#3B45CB"/>
<path d="M36.2408 19.8732C39.7724 19.8732 42.6353 17.0352 42.6353 13.5343C42.6353 10.0334 39.7724 7.19531 36.2408 7.19531C32.7092 7.19531 29.8463 10.0334 29.8463 13.5343C29.8463 17.0352 32.7092 19.8732 36.2408 19.8732Z" fill="#3B46CC"/>
<path d="M36.1367 20.0495C39.6683 20.0495 42.5312 17.2114 42.5312 13.7105C42.5312 10.2096 39.6683 7.37158 36.1367 7.37158C32.6051 7.37158 29.7421 10.2096 29.7421 13.7105C29.7421 17.2114 32.6051 20.0495 36.1367 20.0495Z" fill="#3B46CD"/>
<path d="M36.03 20.2258C39.5616 20.2258 42.4245 17.3877 42.4245 13.8868C42.4245 10.3859 39.5616 7.54785 36.03 7.54785C32.4984 7.54785 29.6354 10.3859 29.6354 13.8868C29.6354 17.3877 32.4984 20.2258 36.03 20.2258Z" fill="#3C47CE"/>
<path d="M35.9232 20.3996C39.4548 20.3996 42.3178 17.5615 42.3178 14.0606C42.3178 10.5597 39.4548 7.72168 35.9232 7.72168C32.3916 7.72168 29.5287 10.5597 29.5287 14.0606C29.5287 17.5615 32.3916 20.3996 35.9232 20.3996Z" fill="#3C48CF"/>
<path d="M35.8165 20.5758C39.3481 20.5758 42.2111 17.7378 42.2111 14.2369C42.2111 10.736 39.3481 7.89795 35.8165 7.89795C32.2849 7.89795 29.422 10.736 29.422 14.2369C29.422 17.7378 32.2849 20.5758 35.8165 20.5758Z" fill="#3C49D0"/>
<path d="M35.7098 20.7521C39.2415 20.7521 42.1044 17.9141 42.1044 14.4132C42.1044 10.9123 39.2415 8.07422 35.7098 8.07422C32.1782 8.07422 29.3153 10.9123 29.3153 14.4132C29.3153 17.9141 32.1782 20.7521 35.7098 20.7521Z" fill="#3D4AD1"/>
<path d="M35.6032 20.9259C39.1348 20.9259 41.9977 18.0879 41.9977 14.587C41.9977 11.0861 39.1348 8.24805 35.6032 8.24805C32.0716 8.24805 29.2086 11.0861 29.2086 14.587C29.2086 18.0879 32.0716 20.9259 35.6032 20.9259Z" fill="#3D4AD1"/>
<path d="M35.4965 21.1022C39.0281 21.1022 41.891 18.2642 41.891 14.7633C41.891 11.2624 39.0281 8.42432 35.4965 8.42432C31.9649 8.42432 29.1019 11.2624 29.1019 14.7633C29.1019 18.2642 31.9649 21.1022 35.4965 21.1022Z" fill="#3E4BD2"/>
<path d="M35.3897 21.2785C38.9213 21.2785 41.7843 18.4404 41.7843 14.9395C41.7843 11.4386 38.9213 8.60059 35.3897 8.60059C31.8581 8.60059 28.9952 11.4386 28.9952 14.9395C28.9952 18.4404 31.8581 21.2785 35.3897 21.2785Z" fill="#3E4CD3"/>
<path d="M35.283 21.4548C38.8146 21.4548 41.6776 18.6167 41.6776 15.1158C41.6776 11.6149 38.8146 8.77686 35.283 8.77686C31.7514 8.77686 28.8885 11.6149 28.8885 15.1158C28.8885 18.6167 31.7514 21.4548 35.283 21.4548Z" fill="#3E4DD4"/>
<path d="M35.1789 21.6286C38.7105 21.6286 41.5734 18.7905 41.5734 15.2896C41.5734 11.7887 38.7105 8.95068 35.1789 8.95068C31.6473 8.95068 28.7844 11.7887 28.7844 15.2896C28.7844 18.7905 31.6473 21.6286 35.1789 21.6286Z" fill="#3F4ED5"/>
<path d="M35.0722 21.8049C38.6038 21.8049 41.4667 18.9668 41.4667 15.4659C41.4667 11.965 38.6038 9.12695 35.0722 9.12695C31.5405 9.12695 28.6776 11.965 28.6776 15.4659C28.6776 18.9668 31.5405 21.8049 35.0722 21.8049Z" fill="#3F4ED6"/>
<path d="M34.9655 21.9811C38.4971 21.9811 41.36 19.1431 41.36 15.6422C41.36 12.1413 38.4971 9.30322 34.9655 9.30322C31.4339 9.30322 28.5709 12.1413 28.5709 15.6422C28.5709 19.1431 31.4339 21.9811 34.9655 21.9811Z" fill="#3F4FD7"/>
<path d="M34.8588 22.1549C38.3904 22.1549 41.2533 19.3169 41.2533 15.816C41.2533 12.3151 38.3904 9.47705 34.8588 9.47705C31.3272 9.47705 28.4642 12.3151 28.4642 15.816C28.4642 19.3169 31.3272 22.1549 34.8588 22.1549Z" fill="#4050D8"/>
<path d="M34.7521 22.3312C38.2837 22.3312 41.1466 19.4932 41.1466 15.9923C41.1466 12.4914 38.2837 9.65332 34.7521 9.65332C31.2205 9.65332 28.3575 12.4914 28.3575 15.9923C28.3575 19.4932 31.2205 22.3312 34.7521 22.3312Z" fill="#4051D9"/>
<path d="M34.6453 22.5075C38.1769 22.5075 41.0399 19.6694 41.0399 16.1685C41.0399 12.6676 38.1769 9.82959 34.6453 9.82959C31.1137 9.82959 28.2508 12.6676 28.2508 16.1685C28.2508 19.6694 31.1137 22.5075 34.6453 22.5075Z" fill="#4052DA"/>
<path d="M34.5386 22.6808C38.0702 22.6808 40.9332 19.8428 40.9332 16.3419C40.9332 12.841 38.0702 10.0029 34.5386 10.0029C31.007 10.0029 28.1441 12.841 28.1441 16.3419C28.1441 19.8428 31.007 22.6808 34.5386 22.6808Z" fill="#4153DB"/>
<path d="M34.432 22.8576C37.9636 22.8576 40.8265 20.0195 40.8265 16.5186C40.8265 13.0177 37.9636 10.1797 34.432 10.1797C30.9003 10.1797 28.0374 13.0177 28.0374 16.5186C28.0374 20.0195 30.9003 22.8576 34.432 22.8576Z" fill="#4153DC"/>
<path d="M34.3253 23.0339C37.8569 23.0339 40.7198 20.1958 40.7198 16.6949C40.7198 13.194 37.8569 10.356 34.3253 10.356C30.7937 10.356 27.9307 13.194 27.9307 16.6949C27.9307 20.1958 30.7937 23.0339 34.3253 23.0339Z" fill="#4154DD"/>
<path d="M34.2185 23.2077C37.7501 23.2077 40.6131 20.3696 40.6131 16.8687C40.6131 13.3678 37.7501 10.5298 34.2185 10.5298C30.6869 10.5298 27.824 13.3678 27.824 16.8687C27.824 20.3696 30.6869 23.2077 34.2185 23.2077Z" fill="#4255DE"/>
<path d="M34.1144 23.384C37.646 23.384 40.5089 20.5459 40.5089 17.045C40.5089 13.5441 37.646 10.7061 34.1144 10.7061C30.5828 10.7061 27.7198 13.5441 27.7198 17.045C27.7198 20.5459 30.5828 23.384 34.1144 23.384Z" fill="#4256DF"/>
<path d="M34.0077 23.5602C37.5393 23.5602 40.4022 20.7222 40.4022 17.2213C40.4022 13.7204 37.5393 10.8823 34.0077 10.8823C30.4761 10.8823 27.6132 13.7204 27.6132 17.2213C27.6132 20.7222 30.4761 23.5602 34.0077 23.5602Z" fill="#4257E0"/>
<path d="M33.901 23.734C37.4326 23.734 40.2955 20.896 40.2955 17.3951C40.2955 13.8942 37.4326 11.0562 33.901 11.0562C30.3693 11.0562 27.5064 13.8942 27.5064 17.3951C27.5064 20.896 30.3693 23.734 33.901 23.734Z" fill="#4357E1"/>
<path d="M33.7943 23.9103C37.3259 23.9103 40.1888 21.0723 40.1888 17.5714C40.1888 14.0705 37.3259 11.2324 33.7943 11.2324C30.2627 11.2324 27.3997 14.0705 27.3997 17.5714C27.3997 21.0723 30.2627 23.9103 33.7943 23.9103Z" fill="#4358E2"/>
<path d="M33.6876 24.0866C37.2192 24.0866 40.0821 21.2485 40.0821 17.7476C40.0821 14.2467 37.2192 11.4087 33.6876 11.4087C30.156 11.4087 27.293 14.2467 27.293 17.7476C27.293 21.2485 30.156 24.0866 33.6876 24.0866Z" fill="#4359E3"/>
<path d="M33.5809 24.2629C37.1125 24.2629 39.9754 21.4248 39.9754 17.9239C39.9754 14.423 37.1125 11.585 33.5809 11.585C30.0493 11.585 27.1863 14.423 27.1863 17.9239C27.1863 21.4248 30.0493 24.2629 33.5809 24.2629Z" fill="#445AE4"/>
<path d="M33.4741 24.4367C37.0057 24.4367 39.8687 21.5986 39.8687 18.0977C39.8687 14.5968 37.0057 11.7588 33.4741 11.7588C29.9425 11.7588 27.0796 14.5968 27.0796 18.0977C27.0796 21.5986 29.9425 24.4367 33.4741 24.4367Z" fill="#445BE5"/>
<path d="M33.3674 24.613C36.899 24.613 39.762 21.7749 39.762 18.274C39.762 14.7731 36.899 11.9351 33.3674 11.9351C29.8358 11.9351 26.9729 14.7731 26.9729 18.274C26.9729 21.7749 29.8358 24.613 33.3674 24.613Z" fill="#445CE6"/>
<path d="M33.2607 24.7892C36.7924 24.7892 39.6553 21.9512 39.6553 18.4503C39.6553 14.9494 36.7924 12.1113 33.2607 12.1113C29.7291 12.1113 26.8662 14.9494 26.8662 18.4503C26.8662 21.9512 29.7291 24.7892 33.2607 24.7892Z" fill="#455CE7"/>
<path d="M33.1566 24.9631C36.6882 24.9631 39.5512 22.125 39.5512 18.6241C39.5512 15.1232 36.6882 12.2852 33.1566 12.2852C29.625 12.2852 26.7621 15.1232 26.7621 18.6241C26.7621 22.125 29.625 24.9631 33.1566 24.9631Z" fill="#455DE8"/>
<path d="M33.0499 25.1393C36.5815 25.1393 39.4444 22.3013 39.4444 18.8004C39.4444 15.2995 36.5815 12.4614 33.0499 12.4614C29.5183 12.4614 26.6553 15.2995 26.6553 18.8004C26.6553 22.3013 29.5183 25.1393 33.0499 25.1393Z" fill="#455EE9"/>
<path d="M32.9432 25.3156C36.4748 25.3156 39.3377 22.4776 39.3377 18.9766C39.3377 15.4757 36.4748 12.6377 32.9432 12.6377C29.4116 12.6377 26.5486 15.4757 26.5486 18.9766C26.5486 22.4776 29.4116 25.3156 32.9432 25.3156Z" fill="#465FEA"/>
<path d="M32.8365 25.4894C36.3681 25.4894 39.231 22.6514 39.231 19.1505C39.231 15.6496 36.3681 12.8115 32.8365 12.8115C29.3049 12.8115 26.442 15.6496 26.442 19.1505C26.442 22.6514 29.3049 25.4894 32.8365 25.4894Z" fill="#4660EB"/>
<path d="M32.7298 25.6657C36.2614 25.6657 39.1244 22.8276 39.1244 19.3267C39.1244 15.8258 36.2614 12.9878 32.7298 12.9878C29.1982 12.9878 26.3353 15.8258 26.3353 19.3267C26.3353 22.8276 29.1982 25.6657 32.7298 25.6657Z" fill="#4660EC"/>
<path d="M32.6231 25.842C36.1547 25.842 39.0176 23.0039 39.0176 19.503C39.0176 16.0021 36.1547 13.1641 32.6231 13.1641C29.0915 13.1641 26.2285 16.0021 26.2285 19.503C26.2285 23.0039 29.0915 25.842 32.6231 25.842Z" fill="#4761ED"/>
<path d="M32.5164 26.0158C36.048 26.0158 38.9109 23.1777 38.9109 19.6768C38.9109 16.1759 36.048 13.3379 32.5164 13.3379C28.9848 13.3379 26.1218 16.1759 26.1218 19.6768C26.1218 23.1777 28.9848 26.0158 32.5164 26.0158Z" fill="#4762EE"/>
<path d="M32.4097 26.1916C35.9413 26.1916 38.8042 23.3535 38.8042 19.8526C38.8042 16.3517 35.9413 13.5137 32.4097 13.5137C28.8781 13.5137 26.0151 16.3517 26.0151 19.8526C26.0151 23.3535 28.8781 26.1916 32.4097 26.1916Z" fill="#4763EF"/>
<path d="M32.303 26.3683C35.8346 26.3683 38.6975 23.5303 38.6975 20.0294C38.6975 16.5285 35.8346 13.6904 32.303 13.6904C28.7714 13.6904 25.9084 16.5285 25.9084 20.0294C25.9084 23.5303 28.7714 26.3683 32.303 26.3683Z" fill="#4864F0"/>
<path d="M32.1988 26.5446C35.7304 26.5446 38.5933 23.7066 38.5933 20.2057C38.5933 16.7047 35.7304 13.8667 32.1988 13.8667C28.6672 13.8667 25.8043 16.7047 25.8043 20.2057C25.8043 23.7066 28.6672 26.5446 32.1988 26.5446Z" fill="#4865F1"/>
<path d="M32.0921 26.7184C35.6237 26.7184 38.4866 23.8804 38.4866 20.3795C38.4866 16.8786 35.6237 14.0405 32.0921 14.0405C28.5605 14.0405 25.6976 16.8786 25.6976 20.3795C25.6976 23.8804 28.5605 26.7184 32.0921 26.7184Z" fill="#4965F2"/>
<path d="M31.9854 26.8947C35.517 26.8947 38.38 24.0567 38.38 20.5557C38.38 17.0548 35.517 14.2168 31.9854 14.2168C28.4538 14.2168 25.5909 17.0548 25.5909 20.5557C25.5909 24.0567 28.4538 26.8947 31.9854 26.8947Z" fill="#4966F3"/>
<path d="M31.8787 27.071C35.4103 27.071 38.2733 24.2329 38.2733 20.732C38.2733 17.2311 35.4103 14.3931 31.8787 14.3931C28.3471 14.3931 25.4842 17.2311 25.4842 20.732C25.4842 24.2329 28.3471 27.071 31.8787 27.071Z" fill="#4967F4"/>
<path d="M31.772 27.2448C35.3036 27.2448 38.1665 24.4067 38.1665 20.9058C38.1665 17.4049 35.3036 14.5669 31.772 14.5669C28.2404 14.5669 25.3774 17.4049 25.3774 20.9058C25.3774 24.4067 28.2404 27.2448 31.772 27.2448Z" fill="#4A68F5"/>
<path d="M31.6653 27.4211C35.1969 27.4211 38.0598 24.583 38.0598 21.0821C38.0598 17.5812 35.1969 14.7432 31.6653 14.7432C28.1337 14.7432 25.2708 17.5812 25.2708 21.0821C25.2708 24.583 28.1337 27.4211 31.6653 27.4211Z" fill="#4A69F6"/>
<path d="M31.5586 27.5968C35.0902 27.5968 37.9531 24.7588 37.9531 21.2579C37.9531 17.757 35.0902 14.9189 31.5586 14.9189C28.027 14.9189 25.1641 17.757 25.1641 21.2579C25.1641 24.7588 28.027 27.5968 31.5586 27.5968Z" fill="#4A69F7"/>
<path d="M31.4519 27.7707C34.9835 27.7707 37.8464 24.9326 37.8464 21.4317C37.8464 17.9308 34.9835 15.0928 31.4519 15.0928C27.9203 15.0928 25.0574 17.9308 25.0574 21.4317C25.0574 24.9326 27.9203 27.7707 31.4519 27.7707Z" fill="#4B6AF8"/>
<path d="M31.3452 27.9474C34.8768 27.9474 37.7398 25.1094 37.7398 21.6085C37.7398 18.1076 34.8768 15.2695 31.3452 15.2695C27.8136 15.2695 24.9507 18.1076 24.9507 21.6085C24.9507 25.1094 27.8136 27.9474 31.3452 27.9474Z" fill="#4B6BF9"/>
<path d="M31.2385 28.1237C34.7701 28.1237 37.633 25.2857 37.633 21.7848C37.633 18.2838 34.7701 15.4458 31.2385 15.4458C27.7069 15.4458 24.8439 18.2838 24.8439 21.7848C24.8439 25.2857 27.7069 28.1237 31.2385 28.1237Z" fill="#4B6CFA"/>
<path d="M31.1344 28.2975C34.666 28.2975 37.5289 25.4595 37.5289 21.9586C37.5289 18.4577 34.666 15.6196 31.1344 15.6196C27.6027 15.6196 24.7398 18.4577 24.7398 21.9586C24.7398 25.4595 27.6027 28.2975 31.1344 28.2975Z" fill="#4C6DFB"/>
<path d="M31.0276 28.4733C34.5592 28.4733 37.4221 25.6353 37.4221 22.1344C37.4221 18.6335 34.5592 15.7954 31.0276 15.7954C27.496 15.7954 24.6331 18.6335 24.6331 22.1344C24.6331 25.6353 27.496 28.4733 31.0276 28.4733Z" fill="#4C6EFC"/>
<path d="M30.9209 28.6501C34.4525 28.6501 37.3154 25.812 37.3154 22.3111C37.3154 18.8102 34.4525 15.9722 30.9209 15.9722C27.3893 15.9722 24.5264 18.8102 24.5264 22.3111C24.5264 25.812 27.3893 28.6501 30.9209 28.6501Z" fill="#4C6EFD"/>
<path d="M30.8142 28.8263C34.3458 28.8263 37.2088 25.9883 37.2088 22.4874C37.2088 18.9865 34.3458 16.1484 30.8142 16.1484C27.2826 16.1484 24.4197 18.9865 24.4197 22.4874C24.4197 25.9883 27.2826 28.8263 30.8142 28.8263Z" fill="#4D6FFE"/>
<path d="M30.7075 29.0002C34.2391 29.0002 37.1021 26.1621 37.1021 22.6612C37.1021 19.1603 34.2391 16.3223 30.7075 16.3223C27.1759 16.3223 24.313 19.1603 24.313 22.6612C24.313 26.1621 27.1759 29.0002 30.7075 29.0002Z" fill="#4D70FF"/>
<defs>
<linearGradient id="paint0_linear" x1="10.4061" y1="0.302215" x2="0.718573" y2="15.1356" gradientUnits="userSpaceOnUse">
<stop stop-color="#2D24A3"/>
<stop offset="0.09" stop-color="#3230B1"/>
<stop offset="0.35" stop-color="#3E4CD3"/>
<stop offset="0.59" stop-color="#4660EB"/>
<stop offset="0.81" stop-color="#4B6CFA"/>
<stop offset="1" stop-color="#4D70FF"/>
</linearGradient>
</defs>
</svg>
