<svg width="46" height="28" viewBox="0 0 46 28" fill="none" xmlns="http://www.w3.org/2000/svg">
<path d="M6.12267 12.2407C9.50413 12.2407 12.2453 9.50054 12.2453 6.12036C12.2453 2.74018 9.50413 0 6.12267 0C2.74121 0 0 2.74018 0 6.12036C0 9.50054 2.74121 12.2407 6.12267 12.2407Z" fill="url(#paint0_linear)"/>
<path d="M22.4376 12.2407C25.8191 12.2407 28.5603 9.50054 28.5603 6.12036C28.5603 2.74018 25.8191 0 22.4376 0C19.0562 0 16.3149 2.74018 16.3149 6.12036C16.3149 9.50054 19.0562 12.2407 22.4376 12.2407Z" fill="#384797"/>
<path d="M22.3184 12.4401C25.6999 12.4401 28.4411 9.69994 28.4411 6.31976C28.4411 2.93958 25.6999 0.199402 22.3184 0.199402C18.937 0.199402 16.1957 2.93958 16.1957 6.31976C16.1957 9.69994 18.937 12.4401 22.3184 12.4401Z" fill="#384898"/>
<path d="M22.1993 12.6395C25.5807 12.6395 28.3219 9.89935 28.3219 6.51916C28.3219 3.13898 25.5807 0.398804 22.1993 0.398804C18.8178 0.398804 16.0766 3.13898 16.0766 6.51916C16.0766 9.89935 18.8178 12.6395 22.1993 12.6395Z" fill="#384998"/>
<path d="M22.0776 12.8389C25.459 12.8389 28.2002 10.0987 28.2002 6.71857C28.2002 3.33838 25.459 0.598206 22.0776 0.598206C18.6961 0.598206 15.9549 3.33838 15.9549 6.71857C15.9549 10.0987 18.6961 12.8389 22.0776 12.8389Z" fill="#384A99"/>
<path d="M21.9584 13.0383C25.3399 13.0383 28.0811 10.2982 28.0811 6.91797C28.0811 3.53779 25.3399 0.797607 21.9584 0.797607C18.577 0.797607 15.8358 3.53779 15.8358 6.91797C15.8358 10.2982 18.577 13.0383 21.9584 13.0383Z" fill="#384B9A"/>
<path d="M21.8392 13.2377C25.2207 13.2377 27.9619 10.4975 27.9619 7.11731C27.9619 3.73713 25.2207 0.996948 21.8392 0.996948C18.4578 0.996948 15.7166 3.73713 15.7166 7.11731C15.7166 10.4975 18.4578 13.2377 21.8392 13.2377Z" fill="#384C9A"/>
<path d="M21.7176 13.4371C25.0991 13.4371 27.8403 10.697 27.8403 7.31677C27.8403 3.93659 25.0991 1.19641 21.7176 1.19641C18.3362 1.19641 15.595 3.93659 15.595 7.31677C15.595 10.697 18.3362 13.4371 21.7176 13.4371Z" fill="#384D9B"/>
<path d="M21.5984 13.6365C24.9798 13.6365 27.721 10.8963 27.721 7.51611C27.721 4.13593 24.9798 1.39575 21.5984 1.39575C18.2169 1.39575 15.4757 4.13593 15.4757 7.51611C15.4757 10.8963 18.2169 13.6365 21.5984 13.6365Z" fill="#384E9C"/>
<path d="M21.4792 13.8359C24.8606 13.8359 27.6019 11.0957 27.6019 7.71551C27.6019 4.33533 24.8606 1.59515 21.4792 1.59515C18.0977 1.59515 15.3565 4.33533 15.3565 7.71551C15.3565 11.0957 18.0977 13.8359 21.4792 13.8359Z" fill="#384F9C"/>
<path d="M21.3576 14.0353C24.7391 14.0353 27.4803 11.2951 27.4803 7.91492C27.4803 4.53473 24.7391 1.79456 21.3576 1.79456C17.9761 1.79456 15.2349 4.53473 15.2349 7.91492C15.2349 11.2951 17.9761 14.0353 21.3576 14.0353Z" fill="#38509D"/>
<path d="M21.2384 14.2346C24.6199 14.2346 27.3611 11.4944 27.3611 8.11426C27.3611 4.73408 24.6199 1.9939 21.2384 1.9939C17.8569 1.9939 15.1157 4.73408 15.1157 8.11426C15.1157 11.4944 17.8569 14.2346 21.2384 14.2346Z" fill="#38519E"/>
<path d="M21.1191 14.4341C24.5006 14.4341 27.2418 11.6939 27.2418 8.31372C27.2418 4.93354 24.5006 2.19336 21.1191 2.19336C17.7377 2.19336 14.9965 4.93354 14.9965 8.31372C14.9965 11.6939 17.7377 14.4341 21.1191 14.4341Z" fill="#38529E"/>
<path d="M20.9975 14.6334C24.3789 14.6334 27.1202 11.8932 27.1202 8.51306C27.1202 5.13288 24.3789 2.3927 20.9975 2.3927C17.616 2.3927 14.8748 5.13288 14.8748 8.51306C14.8748 11.8932 17.616 14.6334 20.9975 14.6334Z" fill="#38539F"/>
<path d="M20.8783 14.8328C24.2598 14.8328 27.001 12.0926 27.001 8.71247C27.001 5.33228 24.2598 2.5921 20.8783 2.5921C17.4969 2.5921 14.7557 5.33228 14.7557 8.71247C14.7557 12.0926 17.4969 14.8328 20.8783 14.8328Z" fill="#3854A0"/>
<path d="M20.7592 15.0346C24.1407 15.0346 26.8819 12.2944 26.8819 8.91425C26.8819 5.53406 24.1407 2.79388 20.7592 2.79388C17.3777 2.79388 14.6365 5.53406 14.6365 8.91425C14.6365 12.2944 17.3777 15.0346 20.7592 15.0346Z" fill="#3855A0"/>
<path d="M20.64 15.2341C24.0215 15.2341 26.7627 12.4939 26.7627 9.11371C26.7627 5.73353 24.0215 2.99335 20.64 2.99335C17.2585 2.99335 14.5173 5.73353 14.5173 9.11371C14.5173 12.4939 17.2585 15.2341 20.64 15.2341Z" fill="#3856A1"/>
<path d="M20.5184 15.4334C23.8999 15.4334 26.6411 12.6932 26.6411 9.31305C26.6411 5.93287 23.8999 3.19269 20.5184 3.19269C17.137 3.19269 14.3958 5.93287 14.3958 9.31305C14.3958 12.6932 17.137 15.4334 20.5184 15.4334Z" fill="#3857A2"/>
<path d="M20.3992 15.6328C23.7806 15.6328 26.5218 12.8926 26.5218 9.51245C26.5218 6.13227 23.7806 3.39209 20.3992 3.39209C17.0177 3.39209 14.2765 6.13227 14.2765 9.51245C14.2765 12.8926 17.0177 15.6328 20.3992 15.6328Z" fill="#3858A2"/>
<path d="M20.28 15.8322C23.6615 15.8322 26.4027 13.092 26.4027 9.71185C26.4027 6.33167 23.6615 3.59149 20.28 3.59149C16.8986 3.59149 14.1573 6.33167 14.1573 9.71185C14.1573 13.092 16.8986 15.8322 20.28 15.8322Z" fill="#3859A3"/>
<path d="M20.1584 16.0316C23.5398 16.0316 26.2811 13.2914 26.2811 9.91125C26.2811 6.53107 23.5398 3.79089 20.1584 3.79089C16.7769 3.79089 14.0357 6.53107 14.0357 9.91125C14.0357 13.2914 16.7769 16.0316 20.1584 16.0316Z" fill="#385AA4"/>
<path d="M20.0391 16.231C23.4206 16.231 26.1618 13.4908 26.1618 10.1107C26.1618 6.73048 23.4206 3.9903 20.0391 3.9903C16.6577 3.9903 13.9164 6.73048 13.9164 10.1107C13.9164 13.4908 16.6577 16.231 20.0391 16.231Z" fill="#385BA4"/>
<path d="M19.92 16.4304C23.3014 16.4304 26.0426 13.6902 26.0426 10.3101C26.0426 6.92988 23.3014 4.1897 19.92 4.1897C16.5385 4.1897 13.7973 6.92988 13.7973 10.3101C13.7973 13.6902 16.5385 16.4304 19.92 16.4304Z" fill="#385CA5"/>
<path d="M19.7983 16.6298C23.1798 16.6298 25.921 13.8896 25.921 10.5095C25.921 7.12928 23.1798 4.3891 19.7983 4.3891C16.4169 4.3891 13.6757 7.12928 13.6757 10.5095C13.6757 13.8896 16.4169 16.6298 19.7983 16.6298Z" fill="#385DA5"/>
<path d="M19.6791 16.8292C23.0606 16.8292 25.8018 14.089 25.8018 10.7088C25.8018 7.32862 23.0606 4.58844 19.6791 4.58844C16.2977 4.58844 13.5565 7.32862 13.5565 10.7088C13.5565 14.089 16.2977 16.8292 19.6791 16.8292Z" fill="#385EA6"/>
<path d="M19.56 17.0286C22.9414 17.0286 25.6827 14.2884 25.6827 10.9082C25.6827 7.52802 22.9414 4.78784 19.56 4.78784C16.1785 4.78784 13.4373 7.52802 13.4373 10.9082C13.4373 14.2884 16.1785 17.0286 19.56 17.0286Z" fill="#385FA7"/>
<path d="M19.4383 17.228C22.8198 17.228 25.561 14.4878 25.561 11.1076C25.561 7.72742 22.8198 4.98724 19.4383 4.98724C16.0569 4.98724 13.3157 7.72742 13.3157 11.1076C13.3157 14.4878 16.0569 17.228 19.4383 17.228Z" fill="#3860A7"/>
<path d="M19.3191 17.4274C22.7006 17.4274 25.4418 14.6872 25.4418 11.307C25.4418 7.92682 22.7006 5.18665 19.3191 5.18665C15.9377 5.18665 13.1965 7.92682 13.1965 11.307C13.1965 14.6872 15.9377 17.4274 19.3191 17.4274Z" fill="#3861A8"/>
<path d="M19.1999 17.6267C22.5814 17.6267 25.3226 14.8865 25.3226 11.5063C25.3226 8.12617 22.5814 5.38599 19.1999 5.38599C15.8185 5.38599 13.0773 8.12617 13.0773 11.5063C13.0773 14.8865 15.8185 17.6267 19.1999 17.6267Z" fill="#3862A9"/>
<path d="M19.0783 17.8261C22.4598 17.8261 25.201 15.0859 25.201 11.7057C25.201 8.32557 22.4598 5.58539 19.0783 5.58539C15.6968 5.58539 12.9556 8.32557 12.9556 11.7057C12.9556 15.0859 15.6968 17.8261 19.0783 17.8261Z" fill="#3863A9"/>
<path d="M18.9591 18.0255C22.3406 18.0255 25.0818 15.2853 25.0818 11.9052C25.0818 8.52497 22.3406 5.78479 18.9591 5.78479C15.5776 5.78479 12.8364 8.52497 12.8364 11.9052C12.8364 15.2853 15.5776 18.0255 18.9591 18.0255Z" fill="#3864AA"/>
<path d="M18.8399 18.2249C22.2214 18.2249 24.9626 15.4847 24.9626 12.1046C24.9626 8.72437 22.2214 5.98419 18.8399 5.98419C15.4584 5.98419 12.7172 8.72437 12.7172 12.1046C12.7172 15.4847 15.4584 18.2249 18.8399 18.2249Z" fill="#3865AB"/>
<path d="M18.7183 18.4243C22.0998 18.4243 24.841 15.6841 24.841 12.304C24.841 8.92377 22.0998 6.18359 18.7183 6.18359C15.3369 6.18359 12.5956 8.92377 12.5956 12.304C12.5956 15.6841 15.3369 18.4243 18.7183 18.4243Z" fill="#3866AB"/>
<path d="M18.5991 18.6237C21.9806 18.6237 24.7218 15.8835 24.7218 12.5034C24.7218 9.12317 21.9806 6.383 18.5991 6.383C15.2177 6.383 12.4764 9.12317 12.4764 12.5034C12.4764 15.8835 15.2177 18.6237 18.5991 18.6237Z" fill="#3867AC"/>
<path d="M18.4799 18.8231C21.8614 18.8231 24.6026 16.0829 24.6026 12.7028C24.6026 9.32258 21.8614 6.5824 18.4799 6.5824C15.0985 6.5824 12.3572 9.32258 12.3572 12.7028C12.3572 16.0829 15.0985 18.8231 18.4799 18.8231Z" fill="#3868AD"/>
<path d="M18.3607 19.0225C21.7422 19.0225 24.4834 16.2823 24.4834 12.9022C24.4834 9.52198 21.7422 6.7818 18.3607 6.7818C14.9793 6.7818 12.238 9.52198 12.238 12.9022C12.238 16.2823 14.9793 19.0225 18.3607 19.0225Z" fill="#3869AD"/>
<path d="M18.2391 19.2219C21.6205 19.2219 24.3617 16.4817 24.3617 13.1015C24.3617 9.72132 21.6205 6.98114 18.2391 6.98114C14.8576 6.98114 12.1164 9.72132 12.1164 13.1015C12.1164 16.4817 14.8576 19.2219 18.2391 19.2219Z" fill="#386AAE"/>
<path d="M18.1199 19.4213C21.5013 19.4213 24.2425 16.6811 24.2425 13.3009C24.2425 9.92072 21.5013 7.18054 18.1199 7.18054C14.7384 7.18054 11.9972 9.92072 11.9972 13.3009C11.9972 16.6811 14.7384 19.4213 18.1199 19.4213Z" fill="#386BAF"/>
<path d="M18.0007 19.6207C21.3821 19.6207 24.1233 16.8805 24.1233 13.5003C24.1233 10.1201 21.3821 7.37994 18.0007 7.37994C14.6192 7.37994 11.878 10.1201 11.878 13.5003C11.878 16.8805 14.6192 19.6207 18.0007 19.6207Z" fill="#386CAF"/>
<path d="M17.8791 19.8225C21.2605 19.8225 24.0018 17.0823 24.0018 13.7021C24.0018 10.322 21.2605 7.58179 17.8791 7.58179C14.4976 7.58179 11.7564 10.322 11.7564 13.7021C11.7564 17.0823 14.4976 19.8225 17.8791 19.8225Z" fill="#386DB0"/>
<path d="M17.7599 20.0218C21.1413 20.0218 23.8826 17.2817 23.8826 13.9015C23.8826 10.5213 21.1413 7.78113 17.7599 7.78113C14.3784 7.78113 11.6372 10.5213 11.6372 13.9015C11.6372 17.2817 14.3784 20.0218 17.7599 20.0218Z" fill="#386EB1"/>
<path d="M17.6407 20.2213C21.0222 20.2213 23.7634 17.4811 23.7634 14.1009C23.7634 10.7207 21.0222 7.98053 17.6407 7.98053C14.2593 7.98053 11.5181 10.7207 11.5181 14.1009C11.5181 17.4811 14.2593 20.2213 17.6407 20.2213Z" fill="#376EB1"/>
<path d="M17.519 20.4207C20.9005 20.4207 23.6417 17.6805 23.6417 14.3003C23.6417 10.9201 20.9005 8.17993 17.519 8.17993C14.1376 8.17993 11.3964 10.9201 11.3964 14.3003C11.3964 17.6805 14.1376 20.4207 17.519 20.4207Z" fill="#376FB2"/>
<path d="M17.3998 20.6201C20.7813 20.6201 23.5225 17.8799 23.5225 14.4997C23.5225 11.1195 20.7813 8.37933 17.3998 8.37933C14.0184 8.37933 11.2772 11.1195 11.2772 14.4997C11.2772 17.8799 14.0184 20.6201 17.3998 20.6201Z" fill="#3770B3"/>
<path d="M17.2807 20.8195C20.6622 20.8195 23.4034 18.0793 23.4034 14.6991C23.4034 11.3189 20.6622 8.57874 17.2807 8.57874C13.8992 8.57874 11.158 11.3189 11.158 14.6991C11.158 18.0793 13.8992 20.8195 17.2807 20.8195Z" fill="#3771B3"/>
<path d="M17.1591 21.0189C20.5405 21.0189 23.2817 18.2787 23.2817 14.8985C23.2817 11.5183 20.5405 8.77814 17.1591 8.77814C13.7776 8.77814 11.0364 11.5183 11.0364 14.8985C11.0364 18.2787 13.7776 21.0189 17.1591 21.0189Z" fill="#3772B4"/>
<path d="M17.0398 21.2183C20.4212 21.2183 23.1625 18.4781 23.1625 15.0979C23.1625 11.7177 20.4212 8.97754 17.0398 8.97754C13.6583 8.97754 10.9171 11.7177 10.9171 15.0979C10.9171 18.4781 13.6583 21.2183 17.0398 21.2183Z" fill="#3773B5"/>
<path d="M16.9206 21.4176C20.3021 21.4176 23.0433 18.6774 23.0433 15.2972C23.0433 11.9171 20.3021 9.17688 16.9206 9.17688C13.5392 9.17688 10.798 11.9171 10.798 15.2972C10.798 18.6774 13.5392 21.4176 16.9206 21.4176Z" fill="#3774B5"/>
<path d="M16.799 21.617C20.1805 21.617 22.9217 18.8768 22.9217 15.4966C22.9217 12.1165 20.1805 9.37628 16.799 9.37628C13.4175 9.37628 10.6763 12.1165 10.6763 15.4966C10.6763 18.8768 13.4175 21.617 16.799 21.617Z" fill="#3775B6"/>
<path d="M16.6798 21.8164C20.0613 21.8164 22.8025 19.0762 22.8025 15.696C22.8025 12.3159 20.0613 9.57568 16.6798 9.57568C13.2983 9.57568 10.5571 12.3159 10.5571 15.696C10.5571 19.0762 13.2983 21.8164 16.6798 21.8164Z" fill="#3776B7"/>
<path d="M16.5607 22.0158C19.9421 22.0158 22.6833 19.2756 22.6833 15.8954C22.6833 12.5153 19.9421 9.77509 16.5607 9.77509C13.1792 9.77509 10.438 12.5153 10.438 15.8954C10.438 19.2756 13.1792 22.0158 16.5607 22.0158Z" fill="#3777B7"/>
<path d="M16.439 22.2152C19.8205 22.2152 22.5617 19.475 22.5617 16.0948C22.5617 12.7147 19.8205 9.97449 16.439 9.97449C13.0576 9.97449 10.3163 12.7147 10.3163 16.0948C10.3163 19.475 13.0576 22.2152 16.439 22.2152Z" fill="#3778B8"/>
<path d="M16.3198 22.4145C19.7013 22.4145 22.4425 19.6744 22.4425 16.2942C22.4425 12.914 19.7013 10.1738 16.3198 10.1738C12.9384 10.1738 10.1971 12.914 10.1971 16.2942C10.1971 19.6744 12.9384 22.4145 16.3198 22.4145Z" fill="#3779B9"/>
<path d="M16.2007 22.614C19.5821 22.614 22.3233 19.8738 22.3233 16.4936C22.3233 13.1134 19.5821 10.3732 16.2007 10.3732C12.8192 10.3732 10.078 13.1134 10.078 16.4936C10.078 19.8738 12.8192 22.614 16.2007 22.614Z" fill="#377AB9"/>
<path d="M16.0791 22.8134C19.4606 22.8134 22.2018 20.0732 22.2018 16.693C22.2018 13.3128 19.4606 10.5726 16.0791 10.5726C12.6976 10.5726 9.95642 13.3128 9.95642 16.693C9.95642 20.0732 12.6976 22.8134 16.0791 22.8134Z" fill="#377BBA"/>
<path d="M15.9598 23.0128C19.3412 23.0128 22.0824 20.2726 22.0824 16.8924C22.0824 13.5122 19.3412 10.772 15.9598 10.772C12.5783 10.772 9.8371 13.5122 9.8371 16.8924C9.8371 20.2726 12.5783 23.0128 15.9598 23.0128Z" fill="#377CBB"/>
<path d="M15.8406 23.2122C19.2221 23.2122 21.9633 20.472 21.9633 17.0918C21.9633 13.7116 19.2221 10.9714 15.8406 10.9714C12.4592 10.9714 9.71796 13.7116 9.71796 17.0918C9.71796 20.472 12.4592 23.2122 15.8406 23.2122Z" fill="#377DBB"/>
<path d="M15.7214 23.4115C19.1028 23.4115 21.844 20.6713 21.844 17.2911C21.844 13.911 19.1028 11.1708 15.7214 11.1708C12.3399 11.1708 9.59869 13.911 9.59869 17.2911C9.59869 20.6713 12.3399 23.4115 15.7214 23.4115Z" fill="#377EBC"/>
<path d="M15.5998 23.611C18.9812 23.611 21.7225 20.8708 21.7225 17.4906C21.7225 14.1104 18.9812 11.3702 15.5998 11.3702C12.2183 11.3702 9.47711 14.1104 9.47711 17.4906C9.47711 20.8708 12.2183 23.611 15.5998 23.611Z" fill="#377FBD"/>
<path d="M15.4806 23.8103C18.862 23.8103 21.6033 21.0701 21.6033 17.6899C21.6033 14.3098 18.862 11.5696 15.4806 11.5696C12.0991 11.5696 9.35791 14.3098 9.35791 17.6899C9.35791 21.0701 12.0991 23.8103 15.4806 23.8103Z" fill="#3780BD"/>
<path d="M15.3614 24.0097C18.7429 24.0097 21.4841 21.2695 21.4841 17.8893C21.4841 14.5092 18.7429 11.769 15.3614 11.769C11.98 11.769 9.23877 14.5092 9.23877 17.8893C9.23877 21.2695 11.98 24.0097 15.3614 24.0097Z" fill="#3781BE"/>
<path d="M15.2397 24.2091C18.6212 24.2091 21.3624 21.4689 21.3624 18.0887C21.3624 14.7086 18.6212 11.9684 15.2397 11.9684C11.8583 11.9684 9.11707 14.7086 9.11707 18.0887C9.11707 21.4689 11.8583 24.2091 15.2397 24.2091Z" fill="#3782BE"/>
<path d="M15.1206 24.4085C18.5021 24.4085 21.2433 21.6683 21.2433 18.2881C21.2433 14.908 18.5021 12.1678 15.1206 12.1678C11.7391 12.1678 8.99792 14.908 8.99792 18.2881C8.99792 21.6683 11.7391 24.4085 15.1206 24.4085Z" fill="#3783BF"/>
<path d="M15.0014 24.6104C18.3829 24.6104 21.1241 21.8702 21.1241 18.49C21.1241 15.1098 18.3829 12.3696 15.0014 12.3696C11.6199 12.3696 8.87872 15.1098 8.87872 18.49C8.87872 21.8702 11.6199 24.6104 15.0014 24.6104Z" fill="#3784C0"/>
<path d="M14.8798 24.8097C18.2613 24.8097 21.0025 22.0695 21.0025 18.6893C21.0025 15.3091 18.2613 12.569 14.8798 12.569C11.4984 12.569 8.75714 15.3091 8.75714 18.6893C8.75714 22.0695 11.4984 24.8097 14.8798 24.8097Z" fill="#3785C0"/>
<path d="M14.7606 25.0091C18.1421 25.0091 20.8833 22.2689 20.8833 18.8887C20.8833 15.5086 18.1421 12.7684 14.7606 12.7684C11.3792 12.7684 8.63794 15.5086 8.63794 18.8887C8.63794 22.2689 11.3792 25.0091 14.7606 25.0091Z" fill="#3786C1"/>
<path d="M14.6414 25.2085C18.0229 25.2085 20.7641 22.4683 20.7641 19.0881C20.7641 15.708 18.0229 12.9678 14.6414 12.9678C11.26 12.9678 8.51874 15.708 8.51874 19.0881C8.51874 22.4683 11.26 25.2085 14.6414 25.2085Z" fill="#3787C2"/>
<path d="M14.5198 25.4079C17.9012 25.4079 20.6424 22.6677 20.6424 19.2875C20.6424 15.9074 17.9012 13.1672 14.5198 13.1672C11.1383 13.1672 8.39709 15.9074 8.39709 19.2875C8.39709 22.6677 11.1383 25.4079 14.5198 25.4079Z" fill="#3788C2"/>
<path d="M14.4006 25.6073C17.782 25.6073 20.5232 22.8671 20.5232 19.4869C20.5232 16.1068 17.782 13.3666 14.4006 13.3666C11.0191 13.3666 8.27789 16.1068 8.27789 19.4869C8.27789 22.8671 11.0191 25.6073 14.4006 25.6073Z" fill="#3789C3"/>
<path d="M14.2814 25.8067C17.6628 25.8067 20.404 23.0665 20.404 19.6863C20.404 16.3062 17.6628 13.566 14.2814 13.566C10.8999 13.566 8.15869 16.3062 8.15869 19.6863C8.15869 23.0665 10.8999 25.8067 14.2814 25.8067Z" fill="#378AC4"/>
<path d="M14.1597 26.006C17.5412 26.006 20.2824 23.2659 20.2824 19.8857C20.2824 16.5055 17.5412 13.7653 14.1597 13.7653C10.7783 13.7653 8.03705 16.5055 8.03705 19.8857C8.03705 23.2659 10.7783 26.006 14.1597 26.006Z" fill="#378BC4"/>
<path d="M14.0405 26.2054C17.422 26.2054 20.1632 23.4653 20.1632 20.0851C20.1632 16.7049 17.422 13.9647 14.0405 13.9647C10.6591 13.9647 7.91785 16.7049 7.91785 20.0851C7.91785 23.4653 10.6591 26.2054 14.0405 26.2054Z" fill="#378CC5"/>
<path d="M13.9213 26.4048C17.3028 26.4048 20.044 23.6647 20.044 20.2845C20.044 16.9043 17.3028 14.1641 13.9213 14.1641C10.5399 14.1641 7.79865 16.9043 7.79865 20.2845C7.79865 23.6647 10.5399 26.4048 13.9213 26.4048Z" fill="#378DC6"/>
<path d="M13.7997 26.6043C17.1811 26.6043 19.9223 23.8641 19.9223 20.4839C19.9223 17.1037 17.1811 14.3635 13.7997 14.3635C10.4182 14.3635 7.677 17.1037 7.677 20.4839C7.677 23.8641 10.4182 26.6043 13.7997 26.6043Z" fill="#378EC6"/>
<path d="M13.6805 26.8037C17.062 26.8037 19.8032 24.0635 19.8032 20.6833C19.8032 17.3031 17.062 14.5629 13.6805 14.5629C10.2991 14.5629 7.55786 17.3031 7.55786 20.6833C7.55786 24.0635 10.2991 26.8037 13.6805 26.8037Z" fill="#378FC7"/>
<path d="M13.5614 27.0031C16.9429 27.0031 19.6841 24.2629 19.6841 20.8827C19.6841 17.5025 16.9429 14.7623 13.5614 14.7623C10.1799 14.7623 7.43872 17.5025 7.43872 20.8827C7.43872 24.2629 10.1799 27.0031 13.5614 27.0031Z" fill="#3790C8"/>
<path d="M13.4421 27.2025C16.8236 27.2025 19.5648 24.4623 19.5648 21.0821C19.5648 17.7019 16.8236 14.9617 13.4421 14.9617C10.0607 14.9617 7.31946 17.7019 7.31946 21.0821C7.31946 24.4623 10.0607 27.2025 13.4421 27.2025Z" fill="#3791C8"/>
<path d="M13.3205 27.4018C16.702 27.4018 19.4432 24.6616 19.4432 21.2814C19.4432 17.9013 16.702 15.1611 13.3205 15.1611C9.93903 15.1611 7.19781 17.9013 7.19781 21.2814C7.19781 24.6616 9.93903 27.4018 13.3205 27.4018Z" fill="#3792C9"/>
<path d="M13.2013 27.6012C16.5828 27.6012 19.324 24.861 19.324 21.4808C19.324 18.1007 16.5828 15.3605 13.2013 15.3605C9.81989 15.3605 7.07867 18.1007 7.07867 21.4808C7.07867 24.861 9.81989 27.6012 13.2013 27.6012Z" fill="#3793CA"/>
<path d="M13.0821 27.8006C16.4635 27.8006 19.2048 25.0604 19.2048 21.6802C19.2048 18.3001 16.4635 15.5599 13.0821 15.5599C9.70063 15.5599 6.95941 18.3001 6.95941 21.6802C6.95941 25.0604 9.70063 27.8006 13.0821 27.8006Z" fill="#3794CA"/>
<path d="M12.9604 28C16.3419 28 19.0831 25.2598 19.0831 21.8796C19.0831 18.4995 16.3419 15.7593 12.9604 15.7593C9.57898 15.7593 6.83777 18.4995 6.83777 21.8796C6.83777 25.2598 9.57898 28 12.9604 28Z" fill="#3795CB"/>
<path d="M38.8791 12.2407C42.2605 12.2407 45.0018 9.50054 45.0018 6.12036C45.0018 2.74018 42.2605 0 38.8791 0C35.4976 0 32.7564 2.74018 32.7564 6.12036C32.7564 9.50054 35.4976 12.2407 38.8791 12.2407Z" fill="#384797"/>
<path d="M38.7599 12.4401C42.1413 12.4401 44.8826 9.69994 44.8826 6.31976C44.8826 2.93958 42.1413 0.199402 38.7599 0.199402C35.3784 0.199402 32.6372 2.93958 32.6372 6.31976C32.6372 9.69994 35.3784 12.4401 38.7599 12.4401Z" fill="#384898"/>
<path d="M38.6407 12.6395C42.0222 12.6395 44.7634 9.89935 44.7634 6.51916C44.7634 3.13898 42.0222 0.398804 38.6407 0.398804C35.2593 0.398804 32.5181 3.13898 32.5181 6.51916C32.5181 9.89935 35.2593 12.6395 38.6407 12.6395Z" fill="#384998"/>
<path d="M38.5191 12.8389C41.9006 12.8389 44.6418 10.0987 44.6418 6.71857C44.6418 3.33838 41.9006 0.598206 38.5191 0.598206C35.1376 0.598206 32.3964 3.33838 32.3964 6.71857C32.3964 10.0987 35.1376 12.8389 38.5191 12.8389Z" fill="#384A99"/>
<path d="M38.3999 13.0383C41.7814 13.0383 44.5226 10.2982 44.5226 6.91797C44.5226 3.53779 41.7814 0.797607 38.3999 0.797607C35.0184 0.797607 32.2772 3.53779 32.2772 6.91797C32.2772 10.2982 35.0184 13.0383 38.3999 13.0383Z" fill="#384B9A"/>
<path d="M38.2807 13.2377C41.6621 13.2377 44.4034 10.4975 44.4034 7.11731C44.4034 3.73713 41.6621 0.996948 38.2807 0.996948C34.8992 0.996948 32.158 3.73713 32.158 7.11731C32.158 10.4975 34.8992 13.2377 38.2807 13.2377Z" fill="#384C9A"/>
<path d="M38.159 13.4371C41.5405 13.4371 44.2817 10.697 44.2817 7.31677C44.2817 3.93659 41.5405 1.19641 38.159 1.19641C34.7776 1.19641 32.0364 3.93659 32.0364 7.31677C32.0364 10.697 34.7776 13.4371 38.159 13.4371Z" fill="#384D9B"/>
<path d="M38.0399 13.6365C41.4213 13.6365 44.1625 10.8963 44.1625 7.51611C44.1625 4.13593 41.4213 1.39575 38.0399 1.39575C34.6584 1.39575 31.9172 4.13593 31.9172 7.51611C31.9172 10.8963 34.6584 13.6365 38.0399 13.6365Z" fill="#384E9C"/>
<path d="M37.9206 13.8359C41.3021 13.8359 44.0433 11.0957 44.0433 7.71551C44.0433 4.33533 41.3021 1.59515 37.9206 1.59515C34.5392 1.59515 31.798 4.33533 31.798 7.71551C31.798 11.0957 34.5392 13.8359 37.9206 13.8359Z" fill="#384F9C"/>
<path d="M37.7991 14.0353C41.1805 14.0353 43.9217 11.2951 43.9217 7.91492C43.9217 4.53473 41.1805 1.79456 37.7991 1.79456C34.4176 1.79456 31.6764 4.53473 31.6764 7.91492C31.6764 11.2951 34.4176 14.0353 37.7991 14.0353Z" fill="#38509D"/>
<path d="M37.6799 14.2346C41.0613 14.2346 43.8025 11.4944 43.8025 8.11426C43.8025 4.73408 41.0613 1.9939 37.6799 1.9939C34.2984 1.9939 31.5572 4.73408 31.5572 8.11426C31.5572 11.4944 34.2984 14.2346 37.6799 14.2346Z" fill="#38519E"/>
<path d="M37.5607 14.4341C40.9421 14.4341 43.6833 11.6939 43.6833 8.31372C43.6833 4.93354 40.9421 2.19336 37.5607 2.19336C34.1792 2.19336 31.438 4.93354 31.438 8.31372C31.438 11.6939 34.1792 14.4341 37.5607 14.4341Z" fill="#38529E"/>
<path d="M37.4415 14.6334C40.8229 14.6334 43.5641 11.8932 43.5641 8.51306C43.5641 5.13288 40.8229 2.3927 37.4415 2.3927C34.06 2.3927 31.3188 5.13288 31.3188 8.51306C31.3188 11.8932 34.06 14.6334 37.4415 14.6334Z" fill="#38539F"/>
<path d="M37.3198 14.8328C40.7013 14.8328 43.4425 12.0926 43.4425 8.71247C43.4425 5.33228 40.7013 2.5921 37.3198 2.5921C33.9384 2.5921 31.1971 5.33228 31.1971 8.71247C31.1971 12.0926 33.9384 14.8328 37.3198 14.8328Z" fill="#3854A0"/>
<path d="M37.2007 15.0346C40.5821 15.0346 43.3233 12.2944 43.3233 8.91425C43.3233 5.53406 40.5821 2.79388 37.2007 2.79388C33.8192 2.79388 31.078 5.53406 31.078 8.91425C31.078 12.2944 33.8192 15.0346 37.2007 15.0346Z" fill="#3855A0"/>
<path d="M37.0814 15.2341C40.4629 15.2341 43.2041 12.4939 43.2041 9.11371C43.2041 5.73353 40.4629 2.99335 37.0814 2.99335C33.7 2.99335 30.9587 5.73353 30.9587 9.11371C30.9587 12.4939 33.7 15.2341 37.0814 15.2341Z" fill="#3856A1"/>
<path d="M36.9598 15.4334C40.3412 15.4334 43.0825 12.6932 43.0825 9.31305C43.0825 5.93287 40.3412 3.19269 36.9598 3.19269C33.5783 3.19269 30.8371 5.93287 30.8371 9.31305C30.8371 12.6932 33.5783 15.4334 36.9598 15.4334Z" fill="#3857A2"/>
<path d="M36.8406 15.6328C40.2221 15.6328 42.9633 12.8926 42.9633 9.51245C42.9633 6.13227 40.2221 3.39209 36.8406 3.39209C33.4592 3.39209 30.718 6.13227 30.718 9.51245C30.718 12.8926 33.4592 15.6328 36.8406 15.6328Z" fill="#3858A2"/>
<path d="M36.7214 15.8322C40.1029 15.8322 42.8441 13.092 42.8441 9.71185C42.8441 6.33167 40.1029 3.59149 36.7214 3.59149C33.34 3.59149 30.5988 6.33167 30.5988 9.71185C30.5988 13.092 33.34 15.8322 36.7214 15.8322Z" fill="#3859A3"/>
<path d="M36.5998 16.0316C39.9813 16.0316 42.7225 13.2914 42.7225 9.91125C42.7225 6.53107 39.9813 3.79089 36.5998 3.79089C33.2184 3.79089 30.4772 6.53107 30.4772 9.91125C30.4772 13.2914 33.2184 16.0316 36.5998 16.0316Z" fill="#385AA4"/>
<path d="M36.4806 16.231C39.862 16.231 42.6033 13.4908 42.6033 10.1107C42.6033 6.73048 39.862 3.9903 36.4806 3.9903C33.0991 3.9903 30.3579 6.73048 30.3579 10.1107C30.3579 13.4908 33.0991 16.231 36.4806 16.231Z" fill="#385BA4"/>
<path d="M36.3614 16.4304C39.7429 16.4304 42.4841 13.6902 42.4841 10.3101C42.4841 6.92988 39.7429 4.1897 36.3614 4.1897C32.98 4.1897 30.2388 6.92988 30.2388 10.3101C30.2388 13.6902 32.98 16.4304 36.3614 16.4304Z" fill="#385CA5"/>
<path d="M36.2397 16.6298C39.6212 16.6298 42.3624 13.8896 42.3624 10.5095C42.3624 7.12928 39.6212 4.3891 36.2397 4.3891C32.8583 4.3891 30.1171 7.12928 30.1171 10.5095C30.1171 13.8896 32.8583 16.6298 36.2397 16.6298Z" fill="#385DA5"/>
<path d="M36.1206 16.8292C39.5021 16.8292 42.2433 14.089 42.2433 10.7088C42.2433 7.32862 39.5021 4.58844 36.1206 4.58844C32.7391 4.58844 29.9979 7.32862 29.9979 10.7088C29.9979 14.089 32.7391 16.8292 36.1206 16.8292Z" fill="#385EA6"/>
<path d="M36.0014 17.0286C39.3829 17.0286 42.1241 14.2884 42.1241 10.9082C42.1241 7.52802 39.3829 4.78784 36.0014 4.78784C32.6199 4.78784 29.8787 7.52802 29.8787 10.9082C29.8787 14.2884 32.6199 17.0286 36.0014 17.0286Z" fill="#385FA7"/>
<path d="M35.8798 17.228C39.2613 17.228 42.0025 14.4878 42.0025 11.1076C42.0025 7.72742 39.2613 4.98724 35.8798 4.98724C32.4984 4.98724 29.7571 7.72742 29.7571 11.1076C29.7571 14.4878 32.4984 17.228 35.8798 17.228Z" fill="#3860A7"/>
<path d="M35.7606 17.4274C39.142 17.4274 41.8832 14.6872 41.8832 11.307C41.8832 7.92682 39.142 5.18665 35.7606 5.18665C32.3791 5.18665 29.6379 7.92682 29.6379 11.307C29.6379 14.6872 32.3791 17.4274 35.7606 17.4274Z" fill="#3861A8"/>
<path d="M35.6414 17.6267C39.0229 17.6267 41.7641 14.8865 41.7641 11.5063C41.7641 8.12617 39.0229 5.38599 35.6414 5.38599C32.2599 5.38599 29.5187 8.12617 29.5187 11.5063C29.5187 14.8865 32.2599 17.6267 35.6414 17.6267Z" fill="#3862A9"/>
<path d="M35.5198 17.8261C38.9012 17.8261 41.6424 15.0859 41.6424 11.7057C41.6424 8.32557 38.9012 5.58539 35.5198 5.58539C32.1383 5.58539 29.3971 8.32557 29.3971 11.7057C29.3971 15.0859 32.1383 17.8261 35.5198 17.8261Z" fill="#3863A9"/>
<path d="M35.4006 18.0255C38.782 18.0255 41.5232 15.2853 41.5232 11.9052C41.5232 8.52497 38.782 5.78479 35.4006 5.78479C32.0191 5.78479 29.2779 8.52497 29.2779 11.9052C29.2779 15.2853 32.0191 18.0255 35.4006 18.0255Z" fill="#3864AA"/>
<path d="M35.2814 18.2249C38.6628 18.2249 41.404 15.4847 41.404 12.1046C41.404 8.72437 38.6628 5.98419 35.2814 5.98419C31.8999 5.98419 29.1587 8.72437 29.1587 12.1046C29.1587 15.4847 31.8999 18.2249 35.2814 18.2249Z" fill="#3865AB"/>
<path d="M35.1622 18.4243C38.5436 18.4243 41.2848 15.6841 41.2848 12.304C41.2848 8.92377 38.5436 6.18359 35.1622 6.18359C31.7807 6.18359 29.0395 8.92377 29.0395 12.304C29.0395 15.6841 31.7807 18.4243 35.1622 18.4243Z" fill="#3866AB"/>
<path d="M35.0405 18.6237C38.422 18.6237 41.1632 15.8835 41.1632 12.5034C41.1632 9.12317 38.422 6.383 35.0405 6.383C31.6591 6.383 28.9178 9.12317 28.9178 12.5034C28.9178 15.8835 31.6591 18.6237 35.0405 18.6237Z" fill="#3867AC"/>
<path d="M34.9214 18.8231C38.3028 18.8231 41.0441 16.0829 41.0441 12.7028C41.0441 9.32258 38.3028 6.5824 34.9214 6.5824C31.5399 6.5824 28.7987 9.32258 28.7987 12.7028C28.7987 16.0829 31.5399 18.8231 34.9214 18.8231Z" fill="#3868AD"/>
<path d="M34.8022 19.0225C38.1836 19.0225 40.9248 16.2823 40.9248 12.9022C40.9248 9.52198 38.1836 6.7818 34.8022 6.7818C31.4207 6.7818 28.6795 9.52198 28.6795 12.9022C28.6795 16.2823 31.4207 19.0225 34.8022 19.0225Z" fill="#3869AD"/>
<path d="M34.6805 19.2219C38.062 19.2219 40.8032 16.4817 40.8032 13.1015C40.8032 9.72132 38.062 6.98114 34.6805 6.98114C31.2991 6.98114 28.5579 9.72132 28.5579 13.1015C28.5579 16.4817 31.2991 19.2219 34.6805 19.2219Z" fill="#386AAE"/>
<path d="M34.5614 19.4213C37.9428 19.4213 40.6841 16.6811 40.6841 13.3009C40.6841 9.92072 37.9428 7.18054 34.5614 7.18054C31.1799 7.18054 28.4387 9.92072 28.4387 13.3009C28.4387 16.6811 31.1799 19.4213 34.5614 19.4213Z" fill="#386BAF"/>
<path d="M34.4421 19.6207C37.8236 19.6207 40.5648 16.8805 40.5648 13.5003C40.5648 10.1201 37.8236 7.37994 34.4421 7.37994C31.0607 7.37994 28.3195 10.1201 28.3195 13.5003C28.3195 16.8805 31.0607 19.6207 34.4421 19.6207Z" fill="#386CAF"/>
<path d="M34.3205 19.8225C37.7019 19.8225 40.4432 17.0823 40.4432 13.7021C40.4432 10.322 37.7019 7.58179 34.3205 7.58179C30.939 7.58179 28.1978 10.322 28.1978 13.7021C28.1978 17.0823 30.939 19.8225 34.3205 19.8225Z" fill="#386DB0"/>
<path d="M34.2013 20.0218C37.5828 20.0218 40.324 17.2817 40.324 13.9015C40.324 10.5213 37.5828 7.78113 34.2013 7.78113C30.8199 7.78113 28.0787 10.5213 28.0787 13.9015C28.0787 17.2817 30.8199 20.0218 34.2013 20.0218Z" fill="#386EB1"/>
<path d="M34.0821 20.2213C37.4636 20.2213 40.2048 17.4811 40.2048 14.1009C40.2048 10.7207 37.4636 7.98053 34.0821 7.98053C30.7007 7.98053 27.9595 10.7207 27.9595 14.1009C27.9595 17.4811 30.7007 20.2213 34.0821 20.2213Z" fill="#376EB1"/>
<path d="M33.9604 20.4207C37.3419 20.4207 40.0831 17.6805 40.0831 14.3003C40.0831 10.9201 37.3419 8.17993 33.9604 8.17993C30.579 8.17993 27.8378 10.9201 27.8378 14.3003C27.8378 17.6805 30.579 20.4207 33.9604 20.4207Z" fill="#376FB2"/>
<path d="M33.8413 20.6201C37.2228 20.6201 39.964 17.8799 39.964 14.4997C39.964 11.1195 37.2228 8.37933 33.8413 8.37933C30.4598 8.37933 27.7186 11.1195 27.7186 14.4997C27.7186 17.8799 30.4598 20.6201 33.8413 20.6201Z" fill="#3770B3"/>
<path d="M33.7221 20.8195C37.1036 20.8195 39.8448 18.0793 39.8448 14.6991C39.8448 11.3189 37.1036 8.57874 33.7221 8.57874C30.3406 8.57874 27.5994 11.3189 27.5994 14.6991C27.5994 18.0793 30.3406 20.8195 33.7221 20.8195Z" fill="#3771B3"/>
<path d="M33.6005 21.0189C36.982 21.0189 39.7232 18.2787 39.7232 14.8985C39.7232 11.5183 36.982 8.77814 33.6005 8.77814C30.2191 8.77814 27.4778 11.5183 27.4778 14.8985C27.4778 18.2787 30.2191 21.0189 33.6005 21.0189Z" fill="#3772B4"/>
<path d="M33.4813 21.2183C36.8628 21.2183 39.604 18.4781 39.604 15.0979C39.604 11.7177 36.8628 8.97754 33.4813 8.97754C30.0999 8.97754 27.3586 11.7177 27.3586 15.0979C27.3586 18.4781 30.0999 21.2183 33.4813 21.2183Z" fill="#3773B5"/>
<path d="M33.3621 21.4176C36.7436 21.4176 39.4848 18.6774 39.4848 15.2972C39.4848 11.9171 36.7436 9.17688 33.3621 9.17688C29.9807 9.17688 27.2394 11.9171 27.2394 15.2972C27.2394 18.6774 29.9807 21.4176 33.3621 21.4176Z" fill="#3774B5"/>
<path d="M33.2404 21.617C36.6219 21.617 39.3631 18.8768 39.3631 15.4966C39.3631 12.1165 36.6219 9.37628 33.2404 9.37628C29.8589 9.37628 27.1177 12.1165 27.1177 15.4966C27.1177 18.8768 29.8589 21.617 33.2404 21.617Z" fill="#3775B6"/>
<path d="M33.1213 21.8164C36.5028 21.8164 39.244 19.0762 39.244 15.696C39.244 12.3159 36.5028 9.57568 33.1213 9.57568C29.7399 9.57568 26.9987 12.3159 26.9987 15.696C26.9987 19.0762 29.7399 21.8164 33.1213 21.8164Z" fill="#3776B7"/>
<path d="M33.0021 22.0158C36.3835 22.0158 39.1247 19.2756 39.1247 15.8954C39.1247 12.5153 36.3835 9.77509 33.0021 9.77509C29.6206 9.77509 26.8794 12.5153 26.8794 15.8954C26.8794 19.2756 29.6206 22.0158 33.0021 22.0158Z" fill="#3777B7"/>
<path d="M32.8805 22.2152C36.2619 22.2152 39.0032 19.475 39.0032 16.0948C39.0032 12.7147 36.2619 9.97449 32.8805 9.97449C29.499 9.97449 26.7578 12.7147 26.7578 16.0948C26.7578 19.475 29.499 22.2152 32.8805 22.2152Z" fill="#3778B8"/>
<path d="M32.7613 22.4145C36.1427 22.4145 38.884 19.6744 38.884 16.2942C38.884 12.914 36.1427 10.1738 32.7613 10.1738C29.3798 10.1738 26.6386 12.914 26.6386 16.2942C26.6386 19.6744 29.3798 22.4145 32.7613 22.4145Z" fill="#3779B9"/>
<path d="M32.6421 22.614C36.0235 22.614 38.7648 19.8738 38.7648 16.4936C38.7648 13.1134 36.0235 10.3732 32.6421 10.3732C29.2606 10.3732 26.5194 13.1134 26.5194 16.4936C26.5194 19.8738 29.2606 22.614 32.6421 22.614Z" fill="#377AB9"/>
<path d="M32.5229 22.8134C35.9043 22.8134 38.6456 20.0732 38.6456 16.693C38.6456 13.3128 35.9043 10.5726 32.5229 10.5726C29.1414 10.5726 26.4002 13.3128 26.4002 16.693C26.4002 20.0732 29.1414 22.8134 32.5229 22.8134Z" fill="#377BBA"/>
<path d="M32.4012 23.0128C35.7827 23.0128 38.5239 20.2726 38.5239 16.8924C38.5239 13.5122 35.7827 10.772 32.4012 10.772C29.0198 10.772 26.2786 13.5122 26.2786 16.8924C26.2786 20.2726 29.0198 23.0128 32.4012 23.0128Z" fill="#377CBB"/>
<path d="M32.282 23.2122C35.6635 23.2122 38.4047 20.472 38.4047 17.0918C38.4047 13.7116 35.6635 10.9714 32.282 10.9714C28.9006 10.9714 26.1594 13.7116 26.1594 17.0918C26.1594 20.472 28.9006 23.2122 32.282 23.2122Z" fill="#377DBB"/>
<path d="M32.1629 23.4115C35.5444 23.4115 38.2856 20.6713 38.2856 17.2911C38.2856 13.911 35.5444 11.1708 32.1629 11.1708C28.7814 11.1708 26.0402 13.911 26.0402 17.2911C26.0402 20.6713 28.7814 23.4115 32.1629 23.4115Z" fill="#377EBC"/>
<path d="M32.0413 23.611C35.4227 23.611 38.1639 20.8708 38.1639 17.4906C38.1639 14.1104 35.4227 11.3702 32.0413 11.3702C28.6598 11.3702 25.9186 14.1104 25.9186 17.4906C25.9186 20.8708 28.6598 23.611 32.0413 23.611Z" fill="#377FBD"/>
<path d="M31.9221 23.8103C35.3035 23.8103 38.0447 21.0701 38.0447 17.6899C38.0447 14.3098 35.3035 11.5696 31.9221 11.5696C28.5406 11.5696 25.7994 14.3098 25.7994 17.6899C25.7994 21.0701 28.5406 23.8103 31.9221 23.8103Z" fill="#3780BD"/>
<path d="M31.8028 24.0097C35.1843 24.0097 37.9255 21.2695 37.9255 17.8893C37.9255 14.5092 35.1843 11.769 31.8028 11.769C28.4214 11.769 25.6802 14.5092 25.6802 17.8893C25.6802 21.2695 28.4214 24.0097 31.8028 24.0097Z" fill="#3781BE"/>
<path d="M31.6812 24.2091C35.0627 24.2091 37.8039 21.4689 37.8039 18.0887C37.8039 14.7086 35.0627 11.9684 31.6812 11.9684C28.2997 11.9684 25.5585 14.7086 25.5585 18.0887C25.5585 21.4689 28.2997 24.2091 31.6812 24.2091Z" fill="#3782BE"/>
<path d="M31.5621 24.4085C34.9435 24.4085 37.6847 21.6683 37.6847 18.2881C37.6847 14.908 34.9435 12.1678 31.5621 12.1678C28.1806 12.1678 25.4394 14.908 25.4394 18.2881C25.4394 21.6683 28.1806 24.4085 31.5621 24.4085Z" fill="#3783BF"/>
<path d="M31.4428 24.6104C34.8243 24.6104 37.5655 21.8702 37.5655 18.49C37.5655 15.1098 34.8243 12.3696 31.4428 12.3696C28.0613 12.3696 25.3201 15.1098 25.3201 18.49C25.3201 21.8702 28.0613 24.6104 31.4428 24.6104Z" fill="#3784C0"/>
<path d="M31.3212 24.8097C34.7026 24.8097 37.4438 22.0695 37.4438 18.6893C37.4438 15.3091 34.7026 12.569 31.3212 12.569C27.9397 12.569 25.1985 15.3091 25.1985 18.6893C25.1985 22.0695 27.9397 24.8097 31.3212 24.8097Z" fill="#3785C0"/>
<path d="M31.202 25.0091C34.5835 25.0091 37.3247 22.2689 37.3247 18.8887C37.3247 15.5086 34.5835 12.7684 31.202 12.7684C27.8206 12.7684 25.0793 15.5086 25.0793 18.8887C25.0793 22.2689 27.8206 25.0091 31.202 25.0091Z" fill="#3786C1"/>
<path d="M31.0828 25.2085C34.4643 25.2085 37.2055 22.4683 37.2055 19.0881C37.2055 15.708 34.4643 12.9678 31.0828 12.9678C27.7014 12.9678 24.9601 15.708 24.9601 19.0881C24.9601 22.4683 27.7014 25.2085 31.0828 25.2085Z" fill="#3787C2"/>
<path d="M30.9612 25.4079C34.3426 25.4079 37.0838 22.6677 37.0838 19.2875C37.0838 15.9074 34.3426 13.1672 30.9612 13.1672C27.5797 13.1672 24.8385 15.9074 24.8385 19.2875C24.8385 22.6677 27.5797 25.4079 30.9612 25.4079Z" fill="#3788C2"/>
<path d="M30.842 25.6073C34.2234 25.6073 36.9646 22.8671 36.9646 19.4869C36.9646 16.1068 34.2234 13.3666 30.842 13.3666C27.4605 13.3666 24.7193 16.1068 24.7193 19.4869C24.7193 22.8671 27.4605 25.6073 30.842 25.6073Z" fill="#3789C3"/>
<path d="M30.7228 25.8067C34.1043 25.8067 36.8455 23.0665 36.8455 19.6863C36.8455 16.3062 34.1043 13.566 30.7228 13.566C27.3414 13.566 24.6002 16.3062 24.6002 19.6863C24.6002 23.0665 27.3414 25.8067 30.7228 25.8067Z" fill="#378AC4"/>
<path d="M30.6012 26.006C33.9826 26.006 36.7239 23.2659 36.7239 19.8857C36.7239 16.5055 33.9826 13.7653 30.6012 13.7653C27.2197 13.7653 24.4785 16.5055 24.4785 19.8857C24.4785 23.2659 27.2197 26.006 30.6012 26.006Z" fill="#378BC4"/>
<path d="M30.482 26.2054C33.8635 26.2054 36.6047 23.4653 36.6047 20.0851C36.6047 16.7049 33.8635 13.9647 30.482 13.9647C27.1006 13.9647 24.3594 16.7049 24.3594 20.0851C24.3594 23.4653 27.1006 26.2054 30.482 26.2054Z" fill="#378CC5"/>
<path d="M30.3628 26.4048C33.7442 26.4048 36.4855 23.6647 36.4855 20.2845C36.4855 16.9043 33.7442 14.1641 30.3628 14.1641C26.9813 14.1641 24.2401 16.9043 24.2401 20.2845C24.2401 23.6647 26.9813 26.4048 30.3628 26.4048Z" fill="#378DC6"/>
<path d="M30.2436 26.6043C33.6251 26.6043 36.3663 23.8641 36.3663 20.4839C36.3663 17.1037 33.6251 14.3635 30.2436 14.3635C26.8622 14.3635 24.121 17.1037 24.121 20.4839C24.121 23.8641 26.8622 26.6043 30.2436 26.6043Z" fill="#378EC6"/>
<path d="M30.122 26.8037C33.5035 26.8037 36.2447 24.0635 36.2447 20.6833C36.2447 17.3031 33.5035 14.5629 30.122 14.5629C26.7405 14.5629 23.9993 17.3031 23.9993 20.6833C23.9993 24.0635 26.7405 26.8037 30.122 26.8037Z" fill="#378FC7"/>
<path d="M30.0028 27.0031C33.3843 27.0031 36.1255 24.2629 36.1255 20.8827C36.1255 17.5025 33.3843 14.7623 30.0028 14.7623C26.6213 14.7623 23.8801 17.5025 23.8801 20.8827C23.8801 24.2629 26.6213 27.0031 30.0028 27.0031Z" fill="#3790C8"/>
<path d="M29.8835 27.2025C33.265 27.2025 36.0062 24.4623 36.0062 21.0821C36.0062 17.7019 33.265 14.9617 29.8835 14.9617C26.5021 14.9617 23.7609 17.7019 23.7609 21.0821C23.7609 24.4623 26.5021 27.2025 29.8835 27.2025Z" fill="#3791C8"/>
<path d="M29.762 27.4018C33.1434 27.4018 35.8846 24.6616 35.8846 21.2814C35.8846 17.9013 33.1434 15.1611 29.762 15.1611C26.3805 15.1611 23.6393 17.9013 23.6393 21.2814C23.6393 24.6616 26.3805 27.4018 29.762 27.4018Z" fill="#3792C9"/>
<path d="M29.6428 27.6012C33.0242 27.6012 35.7654 24.861 35.7654 21.4808C35.7654 18.1007 33.0242 15.3605 29.6428 15.3605C26.2613 15.3605 23.5201 18.1007 23.5201 21.4808C23.5201 24.861 26.2613 27.6012 29.6428 27.6012Z" fill="#3793CA"/>
<path d="M29.5236 27.8006C32.9051 27.8006 35.6463 25.0604 35.6463 21.6802C35.6463 18.3001 32.9051 15.5599 29.5236 15.5599C26.1422 15.5599 23.4009 18.3001 23.4009 21.6802C23.4009 25.0604 26.1422 27.8006 29.5236 27.8006Z" fill="#3794CA"/>
<path d="M29.402 28C32.7834 28 35.5247 25.2598 35.5247 21.8796C35.5247 18.4995 32.7834 15.7593 29.402 15.7593C26.0205 15.7593 23.2793 18.4995 23.2793 21.8796C23.2793 25.2598 26.0205 28 29.402 28Z" fill="#3795CB"/>
<defs>
<linearGradient id="paint0_linear" x1="9.96607" y1="0.291793" x2="0.581454" y2="14.5443" gradientUnits="userSpaceOnUse">
<stop stop-color="#384797"/>
<stop offset="0.28" stop-color="#3869AE"/>
<stop offset="0.55" stop-color="#3781BE"/>
<stop offset="0.8" stop-color="#3790C8"/>
<stop offset="1" stop-color="#3795CB"/>
</linearGradient>
</defs>
</svg>
