<svg width="18" height="18" viewBox="0 0 18 18" fill="none" xmlns="http://www.w3.org/2000/svg">
<path d="M4.67221 13.2144C4.74234 13.2393 4.80718 13.2787 4.86301 13.3303C4.91884 13.382 4.96458 13.4448 4.9976 13.5153C5.03062 13.5857 5.05028 13.6624 5.05545 13.741C5.06063 13.8195 5.05121 13.8984 5.02775 13.9731L4.46518 15.7708C4.44399 15.8482 4.40837 15.9202 4.36043 15.9826C4.3125 16.045 4.25324 16.0964 4.18621 16.1338C4.11918 16.1712 4.04575 16.1938 3.97032 16.2003C3.89489 16.2068 3.81901 16.197 3.74721 16.1715C3.67542 16.146 3.6092 16.1054 3.5525 16.052C3.49581 15.9986 3.4498 15.9336 3.41725 15.8608C3.3847 15.788 3.36627 15.709 3.36305 15.6285C3.35984 15.5479 3.37191 15.4675 3.39855 15.3921L3.96112 13.5943C4.00813 13.4435 4.10945 13.3188 4.2428 13.2475C4.37616 13.1763 4.53061 13.1644 4.67221 13.2144ZM8.04763 13.2144C8.11777 13.2393 8.1826 13.2787 8.23844 13.3303C8.29427 13.382 8.34 13.4448 8.37302 13.5153C8.40604 13.5857 8.4257 13.6624 8.43088 13.741C8.43605 13.8195 8.42664 13.8984 8.40318 13.9731L7.27804 17.5685C7.25685 17.6459 7.22122 17.718 7.17328 17.7803C7.12535 17.8427 7.06609 17.8941 6.99906 17.9316C6.93203 17.969 6.8586 17.9916 6.78317 17.9981C6.70774 18.0045 6.63186 17.9947 6.56007 17.9692C6.48828 17.9438 6.42205 17.9031 6.36536 17.8497C6.30866 17.7963 6.26266 17.7313 6.23011 17.6585C6.19755 17.5858 6.17912 17.5067 6.17591 17.4262C6.17269 17.3457 6.18476 17.2653 6.2114 17.1898L7.33654 13.5943C7.38355 13.4435 7.48488 13.3188 7.61823 13.2475C7.75158 13.1763 7.90604 13.1644 8.04763 13.2144ZM11.4231 13.2144C11.4932 13.2393 11.558 13.2787 11.6139 13.3303C11.6697 13.382 11.7154 13.4448 11.7484 13.5153C11.7815 13.5857 11.8011 13.6624 11.8063 13.741C11.8115 13.8195 11.8021 13.8984 11.7786 13.9731L11.216 15.7708C11.1948 15.8482 11.1592 15.9202 11.1113 15.9826C11.0633 16.045 11.0041 16.0964 10.9371 16.1338C10.87 16.1712 10.7966 16.1938 10.7212 16.2003C10.6457 16.2068 10.5699 16.197 10.4981 16.1715C10.4263 16.146 10.36 16.1054 10.3034 16.052C10.2467 15.9986 10.2007 15.9336 10.1681 15.8608C10.1355 15.788 10.1171 15.709 10.1139 15.6285C10.1107 15.5479 10.1228 15.4675 10.1494 15.3921L10.712 13.5943C10.759 13.4435 10.8603 13.3188 10.9937 13.2475C11.127 13.1763 11.2815 13.1644 11.4231 13.2144ZM14.7985 13.2144C14.8686 13.2393 14.9335 13.2787 14.9893 13.3303C15.0451 13.382 15.0909 13.4448 15.1239 13.5153C15.1569 13.5857 15.1766 13.6624 15.1817 13.741C15.1869 13.8195 15.1775 13.8984 15.154 13.9731L14.0289 17.5685C14.0077 17.6459 13.9721 17.718 13.9241 17.7803C13.8762 17.8427 13.8169 17.8941 13.7499 17.9316C13.6829 17.969 13.6095 17.9916 13.534 17.9981C13.4586 18.0045 13.3827 17.9947 13.3109 17.9692C13.2391 17.9438 13.1729 17.9031 13.1162 17.8497C13.0595 17.7963 13.0135 17.7313 12.981 17.6585C12.9484 17.5858 12.93 17.5067 12.9268 17.4262C12.9235 17.3457 12.9356 17.2653 12.9623 17.1898L14.0874 13.5943C14.1344 13.4435 14.2357 13.3188 14.3691 13.2475C14.5024 13.1763 14.6569 13.1644 14.7985 13.2144ZM15.0764 4.8274C14.8427 3.57277 14.2384 2.43067 13.3518 1.56808C12.4651 0.705487 11.3427 0.167651 10.1485 0.0332076C8.9544 -0.101236 7.7512 0.174766 6.71486 0.820856C5.67852 1.46695 4.8634 2.44924 4.38867 3.62411C3.8563 3.55878 3.31701 3.60989 2.80382 3.77429C2.29063 3.9387 1.81434 4.21294 1.40412 4.58024C0.993894 4.94754 0.658364 5.40016 0.418072 5.91039C0.17778 6.42061 0.0377826 6.97772 0.00665083 7.54758C-0.0244809 8.11745 0.0539083 8.68809 0.237019 9.22456C0.42013 9.76104 0.704109 10.2521 1.07157 10.6676C1.43903 11.0831 1.88224 11.4143 2.37406 11.641C2.86588 11.8677 3.39597 11.9851 3.93187 11.986H14.6207C15.4771 11.987 16.3018 11.6413 16.9278 11.0189C17.5538 10.3965 17.9343 9.54383 17.9923 8.63374C18.0502 7.72365 17.7812 6.82412 17.2398 6.11738C16.6984 5.41063 15.925 4.9495 15.0764 4.8274Z" fill="#4D70FF"/>
</svg>
