<svg width="18" height="18" viewBox="0 0 18 18" fill="none" xmlns="http://www.w3.org/2000/svg">
<path d="M0 8.56098C0 7.5197 0.308005 6.59522 0.924016 5.78752C1.54003 4.97983 2.33379 4.45216 3.30529 4.2045C3.57666 2.97749 4.18589 1.96998 5.13297 1.18199C6.08005 0.393996 7.16689 0 8.39349 0C9.58752 0 10.6526 0.384146 11.5889 1.15244C12.5251 1.92073 13.1343 2.90713 13.4166 4.11163H13.6934C14.4695 4.11163 15.1886 4.31004 15.8507 4.70685C16.5129 5.10366 17.0366 5.644 17.422 6.32786C17.8073 7.01173 18 7.7561 18 8.56098C18 9.75422 17.5984 10.7814 16.7951 11.6426C15.9919 12.5038 15.0149 12.954 13.8643 12.9934C13.7503 12.9934 13.6934 12.9428 13.6934 12.8415V11.6426C13.6934 11.5356 13.7503 11.4822 13.8643 11.4822C14.6024 11.4428 15.2334 11.1374 15.7571 10.5661C16.2809 9.99484 16.5427 9.32645 16.5427 8.56098C16.5427 7.76173 16.2632 7.07223 15.7042 6.4925C15.1452 5.91276 14.4749 5.62289 13.6934 5.62289H12.2931C12.19 5.62289 12.1384 5.57223 12.1384 5.47092L12.0733 4.94747C11.9756 3.97373 11.5726 3.1576 10.8643 2.49906C10.156 1.84053 9.33243 1.51126 8.39349 1.51126C7.43826 1.51126 6.60923 1.84334 5.90638 2.5075C5.20353 3.17167 4.80597 3.99625 4.7137 4.98124L4.66486 5.42871C4.66486 5.54128 4.60787 5.59756 4.49389 5.59756L4.03799 5.65666C3.31615 5.71857 2.70963 6.02955 2.21845 6.58959C1.72727 7.14962 1.48168 7.80675 1.48168 8.56098C1.48168 9.32645 1.74355 9.99484 2.2673 10.5661C2.79104 11.1374 3.42198 11.4428 4.16011 11.4822C4.2578 11.4822 4.30665 11.5356 4.30665 11.6426V12.8415C4.30665 12.9428 4.2578 12.9934 4.16011 12.9934C2.99864 12.954 2.01493 12.5038 1.20896 11.6426C0.402985 10.7814 0 9.75422 0 8.56098ZM4.77883 15.4925C4.77883 15.2842 4.8521 15.1041 4.99864 14.9522C5.13976 14.8171 5.30529 14.7495 5.49525 14.7495C5.69607 14.7495 5.86567 14.8199 6.00407 14.9606C6.14247 15.1013 6.21167 15.2786 6.21167 15.4925C6.21167 15.7064 6.14247 15.8837 6.00407 16.0244C5.86567 16.1651 5.69607 16.2355 5.49525 16.2355C5.29444 16.2355 5.12483 16.1651 4.98643 16.0244C4.84803 15.8837 4.77883 15.7064 4.77883 15.4925ZM5.52782 12.2251C5.52782 12.0225 5.59701 11.848 5.73541 11.7017C5.87381 11.5553 6.04342 11.4822 6.24423 11.4822C6.44505 11.4822 6.61465 11.5553 6.75305 11.7017C6.89145 11.848 6.96065 12.0225 6.96065 12.2251C6.96065 12.439 6.89145 12.6205 6.75305 12.7697C6.61465 12.9189 6.44505 12.9934 6.24423 12.9934C6.04342 12.9934 5.87381 12.9189 5.73541 12.7697C5.59701 12.6205 5.52782 12.439 5.52782 12.2251ZM7.18046 17.257C7.18046 17.0544 7.25373 16.8715 7.40027 16.7083C7.54138 16.5619 7.70692 16.4887 7.89688 16.4887C8.10312 16.4887 8.27951 16.5647 8.42605 16.7167C8.57259 16.8687 8.64586 17.0488 8.64586 17.257C8.64586 17.4653 8.57259 17.6412 8.42605 17.7847C8.27951 17.9282 8.10312 18 7.89688 18C7.70149 18 7.53324 17.9282 7.39213 17.7847C7.25102 17.6412 7.18046 17.4653 7.18046 17.257ZM7.92944 13.9644C7.92944 13.7505 8 13.5647 8.14111 13.4071C8.28222 13.2608 8.45047 13.1876 8.64586 13.1876C8.84668 13.1876 9.02035 13.2636 9.16689 13.4156C9.31343 13.5675 9.3867 13.7505 9.3867 13.9644C9.3867 14.1726 9.31479 14.3513 9.17096 14.5005C9.02714 14.6496 8.8521 14.7242 8.64586 14.7242C8.45047 14.7242 8.28222 14.6496 8.14111 14.5005C8 14.3513 7.92944 14.1726 7.92944 13.9644ZM8.29579 10.7054C8.29579 10.4972 8.36906 10.3171 8.5156 10.1651C8.66757 10.0188 8.83311 9.94559 9.01221 9.94559C9.21845 9.94559 9.39484 10.0202 9.54138 10.1693C9.68792 10.3185 9.76119 10.4972 9.76119 10.7054C9.76119 10.9137 9.68792 11.0896 9.54138 11.2331C9.39484 11.3766 9.21845 11.4484 9.01221 11.4484C8.81683 11.4484 8.64858 11.3766 8.50746 11.2331C8.36635 11.0896 8.29579 10.9137 8.29579 10.7054ZM10.3555 15.4925C10.3555 15.2899 10.4261 15.1098 10.5672 14.9522C10.7083 14.8171 10.882 14.7495 11.0882 14.7495C11.2944 14.7495 11.4654 14.8199 11.6011 14.9606C11.7368 15.1013 11.8046 15.2786 11.8046 15.4925C11.8046 15.7064 11.7368 15.8837 11.6011 16.0244C11.4654 16.1651 11.2944 16.2355 11.0882 16.2355C10.882 16.2355 10.7083 16.1637 10.5672 16.0202C10.4261 15.8766 10.3555 15.7007 10.3555 15.4925ZM11.0963 12.2251C11.0963 12.0281 11.1696 11.8551 11.3161 11.7059C11.4627 11.5568 11.6364 11.4822 11.8372 11.4822C12.038 11.4822 12.2076 11.5553 12.346 11.7017C12.4844 11.848 12.5536 12.0225 12.5536 12.2251C12.5536 12.439 12.4844 12.6205 12.346 12.7697C12.2076 12.9189 12.038 12.9934 11.8372 12.9934C11.6309 12.9934 11.4559 12.9174 11.3121 12.7655C11.1682 12.6135 11.0963 12.4334 11.0963 12.2251Z" fill="#4D70FF"/>
</svg>
