<svg width="18" height="18" viewBox="0 0 18 18" fill="none" xmlns="http://www.w3.org/2000/svg">
<path d="M12.9079 12C12.7813 10.7834 12.271 9.64871 11.4607 8.78204C10.6504 7.91536 9.58806 7.36812 8.44796 7.23003C7.30785 7.09195 6.15759 7.3712 5.18577 8.02202C4.21394 8.67284 3.47823 9.6566 3.09924 10.812C2.23079 10.8878 1.42351 11.3191 0.846366 12.0155C0.269224 12.712 -0.0330319 13.6196 0.00286799 14.5484C0.0387679 15.4772 0.410041 16.3551 1.03897 16.9985C1.6679 17.6419 2.50573 18.0008 3.37707 18.0001H12.9382C13.684 18.0001 14.3993 17.684 14.9267 17.1214C15.4541 16.5588 15.7503 15.7957 15.7503 15C15.7503 14.2044 15.4541 13.4413 14.9267 12.8787C14.3993 12.3161 13.684 12 12.9382 12H12.9079Z" fill="#DCDCDC"/>
<path d="M11.8134 0.600005C11.8134 0.440874 11.7542 0.28826 11.6487 0.175737C11.5432 0.0632146 11.4002 0 11.251 0C11.1019 0 10.9588 0.0632146 10.8533 0.175737C10.7478 0.28826 10.6886 0.440874 10.6886 0.600005V1.80001C10.6886 1.95915 10.7478 2.11176 10.8533 2.22428C10.9588 2.3368 11.1019 2.40002 11.251 2.40002C11.4002 2.40002 11.5432 2.3368 11.6487 2.22428C11.7542 2.11176 11.8134 1.95915 11.8134 1.80001V0.600005ZM16.0237 2.95682C16.0774 2.90147 16.1203 2.83527 16.1498 2.76206C16.1792 2.68886 16.1947 2.61013 16.1954 2.53046C16.196 2.45079 16.1818 2.37178 16.1535 2.29805C16.1253 2.22431 16.0835 2.15732 16.0307 2.10098C15.9779 2.04464 15.9151 2.00009 15.846 1.96992C15.7768 1.93975 15.7028 1.92457 15.6281 1.92527C15.5534 1.92596 15.4796 1.94251 15.411 1.97395C15.3424 2.0054 15.2803 2.05111 15.2285 2.10842L14.4321 2.95682C14.3265 3.06949 14.2671 3.22229 14.2671 3.38163C14.2671 3.54096 14.3265 3.69377 14.4321 3.80643C14.5377 3.9191 14.6809 3.98239 14.8303 3.98239C14.9796 3.98239 15.1228 3.9191 15.2285 3.80643L16.0237 2.95682ZM7.27358 2.10842C7.1675 1.99912 7.02543 1.93864 6.87797 1.94001C6.7305 1.94138 6.58944 2.00448 6.48516 2.11573C6.38089 2.22697 6.32174 2.37746 6.32046 2.53478C6.31917 2.6921 6.37586 2.84366 6.47831 2.95682L7.27358 3.80643C7.32587 3.86222 7.38795 3.90647 7.45627 3.93666C7.52459 3.96685 7.59782 3.98239 7.67177 3.98239C7.74572 3.98239 7.81895 3.96685 7.88727 3.93666C7.95559 3.90647 8.01767 3.86222 8.06996 3.80643C8.12225 3.75064 8.16373 3.68442 8.19203 3.61153C8.22033 3.53864 8.2349 3.46052 8.2349 3.38163C8.2349 3.30273 8.22033 3.22461 8.19203 3.15173C8.16373 3.07884 8.12225 3.01261 8.06996 2.95682L7.27358 2.10842ZM9.22405 6.15725C9.36385 5.84817 9.56416 5.57468 9.81146 5.35521C10.0588 5.13574 10.3473 4.97541 10.6576 4.88502C10.968 4.79463 11.2928 4.77629 11.6104 4.83124C11.9279 4.88619 12.2307 5.01314 12.4983 5.20354C12.766 5.39394 12.9922 5.64336 13.1618 5.93497C13.3314 6.22658 13.4404 6.5536 13.4815 6.89398C13.5225 7.23435 13.4947 7.58015 13.3998 7.90807C13.3049 8.23599 13.1453 8.53839 12.9315 8.79487C13.1554 9.13207 13.35 9.49328 13.5119 9.87248C13.8931 9.50504 14.1907 9.04959 14.3818 8.54085C14.573 8.03212 14.6528 7.48354 14.615 6.93693C14.5773 6.39032 14.4231 5.86012 14.1642 5.38675C13.9052 4.91337 13.5483 4.50932 13.1208 4.20541C12.6933 3.90149 12.2063 3.70573 11.6971 3.63305C11.1879 3.56037 10.6698 3.61269 10.1825 3.78602C9.69506 3.95935 9.25121 4.24912 8.88472 4.63323C8.51824 5.01733 8.2388 5.48564 8.06771 6.00245C8.46366 6.01565 8.8506 6.06845 9.22405 6.15725ZM14.2678 11.0461C14.9427 11.3041 15.5333 11.7541 15.9798 12.3325C16.0411 12.2796 16.0912 12.2135 16.127 12.1386C16.1628 12.0637 16.1834 11.9817 16.1875 11.8977C16.1917 11.8138 16.1792 11.7298 16.151 11.6513C16.1228 11.5728 16.0794 11.5016 16.0237 11.4421L15.2285 10.5937C15.1483 10.5076 15.0455 10.4495 14.9338 10.4271C14.822 10.4046 14.7065 10.4188 14.6024 10.4678C14.4984 10.5168 14.4107 10.5983 14.351 10.7015C14.2913 10.8048 14.2623 10.9249 14.2678 11.0461ZM16.3128 6.60005C16.1636 6.60005 16.0206 6.66327 15.9151 6.77579C15.8096 6.88831 15.7504 7.04093 15.7504 7.20006C15.7504 7.35919 15.8096 7.5118 15.9151 7.62432C16.0206 7.73685 16.1636 7.80006 16.3128 7.80006H17.4376C17.5868 7.80006 17.7299 7.73685 17.8353 7.62432C17.9408 7.5118 18.0001 7.35919 18.0001 7.20006C18.0001 7.04093 17.9408 6.88831 17.8353 6.77579C17.7299 6.66327 17.5868 6.60005 17.4376 6.60005H16.3128Z" fill="#DCDCDC"/>
</svg>
