<svg width="30" height="30" viewBox="0 0 30 30" fill="none" xmlns="http://www.w3.org/2000/svg">
<path d="M15 27.5C12.3478 27.5 9.8043 26.4464 7.92893 24.5711C6.05357 22.6957 5 20.1522 5 17.5C5 13.1225 8.3875 9.62125 11.3663 6.4125L15 2.5L18.6337 6.4125C21.6125 9.6225 25 13.1238 25 17.5C25 20.1522 23.9464 22.6957 22.0711 24.5711C20.1957 26.4464 17.6522 27.5 15 27.5V27.5Z" stroke="#80B9EF" stroke-width="2" stroke-linecap="round" stroke-linejoin="round"/>
<path d="M7 23H23V23C23 25.2091 21.2091 27 19 27H11C8.79086 27 7 25.2091 7 23V23Z" fill="#80B9EF"/>
</svg>
